<svg width="178" height="38" viewBox="0 0 178 38" fill="none" xmlns="http://www.w3.org/2000/svg">
<g clip-path="url(#clip0)">
<path d="M36.6059 23.5989C34.1238 33.7774 24.0402 39.9719 14.0833 37.4336C4.13036 34.896 -1.92862 24.5863 0.554673 14.4084C3.03564 4.22869 13.1192 -1.9664 23.0733 0.571249C33.0297 3.1089 39.0881 13.4198 36.6059 23.5989V23.5989Z" fill="#F7931A"/>
<path d="M26.7746 16.2954C27.1446 13.7673 25.2618 12.4082 22.6873 11.5016L23.5224 8.07688L21.4834 7.55735L20.6704 10.8918C20.1343 10.7552 19.5838 10.6264 19.0367 10.4988L19.8556 7.14233L17.8177 6.6228L16.982 10.0463C16.5383 9.943 16.1028 9.84089 15.68 9.73342L15.6823 9.72273L12.8703 9.00489L12.3279 11.2314C12.3279 11.2314 13.8407 11.5859 13.8088 11.6078C14.6346 11.8186 14.7839 12.3773 14.7589 12.8203L13.8076 16.7217C13.8645 16.7366 13.9383 16.758 14.0196 16.7912C13.9517 16.774 13.8791 16.755 13.8042 16.7366L12.4707 22.202C12.3697 22.4585 12.1136 22.8432 11.5363 22.6971C11.5566 22.7274 10.0542 22.3189 10.0542 22.3189L9.04199 24.7052L11.6954 25.3814C12.1891 25.5079 12.6728 25.6403 13.1491 25.765L12.3052 29.2289L14.3419 29.7484L15.1776 26.3213C15.734 26.4757 16.2741 26.6182 16.8026 26.7524L15.9698 30.1634L18.0088 30.683L18.8526 27.2256C22.3296 27.8983 24.9441 27.627 26.0446 24.4119C26.9314 21.8232 26.0005 20.3299 24.1711 19.3562C25.5034 19.0421 26.5069 18.1461 26.7746 16.2954V16.2954ZM22.1158 22.9744C21.4857 25.5631 17.2224 24.1637 15.8403 23.8128L16.9599 19.2238C18.3421 19.5764 22.7744 20.2747 22.1158 22.9744ZM22.7465 16.258C22.1716 18.6128 18.6232 17.4164 17.4722 17.1231L18.4873 12.961C19.6384 13.2543 23.3453 13.8017 22.7465 16.258Z" fill="white"/>
<path d="M54.4581 11.498C55.9651 11.498 57.2672 11.7741 58.3613 12.3162C59.4607 12.8636 60.3678 13.601 61.0955 14.5285C61.8133 15.4606 62.3476 16.5501 62.6925 17.7988C63.0352 19.051 63.2071 20.397 63.2071 21.838C63.2071 24.0515 62.8104 26.1426 62.0096 28.1138C61.2087 30.088 60.1221 31.8004 58.74 33.261C57.3589 34.7198 55.7282 35.8699 53.8477 36.7195C51.9702 37.5697 49.9288 37.9949 47.7371 37.9949C47.4537 37.9949 46.9554 37.9866 46.2515 37.9717C45.5476 37.9569 44.7387 37.8826 43.8327 37.7574C42.9209 37.6273 41.9569 37.435 40.9388 37.1773C39.9213 36.9244 38.955 36.5699 38.0449 36.1198L46.1824 1.16276L53.4708 0.00793457L50.5572 12.413C51.1809 12.1256 51.8093 11.9029 52.4365 11.7408C53.0643 11.5811 53.738 11.498 54.4581 11.498V11.498ZM48.3445 32.0836C49.4421 32.0836 50.4765 31.8075 51.4481 31.2654C52.4226 30.7227 53.2635 29.9901 53.9679 29.0775C54.6724 28.1607 55.2299 27.1282 55.6364 25.9746C56.043 24.821 56.2485 23.6174 56.2485 22.3652C56.2485 20.8269 55.9971 19.6269 55.4959 18.7595C54.9947 17.8956 54.0672 17.4609 52.7205 17.4609C52.2791 17.4609 51.7106 17.547 51.0055 17.7008C50.2982 17.8641 49.6652 18.2031 49.0978 18.7131L45.9954 31.8871C46.1824 31.9209 46.3479 31.953 46.489 31.9832C46.6272 32.0159 46.78 32.0391 46.9321 32.0551C47.093 32.0735 47.2771 32.083 47.4995 32.083C47.722 32.083 48.0001 32.0836 48.3445 32.0836V32.0836Z" fill="#4D4D4D"/>
<path d="M70.7661 37.3257H63.8047L69.6836 12.0341H76.6927L70.7661 37.3257ZM74.1537 8.95263C73.1821 8.95263 72.3011 8.65694 71.5194 8.06439C70.7313 7.4754 70.341 6.56876 70.341 5.34684C70.341 4.67473 70.4746 4.04416 70.7394 3.44924C71.0083 2.8555 71.3597 2.34429 71.7999 1.90967C72.2395 1.47862 72.7488 1.13424 73.3273 0.874778C73.9092 0.619469 74.5283 0.491821 75.188 0.491821C76.159 0.491821 77.0353 0.787505 77.8199 1.38006C78.6016 1.97558 78.9948 2.88222 78.9948 4.09761C78.9948 4.7721 78.8618 5.40502 78.5947 5.99876C78.3293 6.5925 77.9779 7.10371 77.5377 7.53832C77.1015 7.96997 76.5876 8.31316 76.0103 8.57025C75.4278 8.82971 74.8111 8.95263 74.1537 8.95263Z" fill="#4D4D4D"/>
<path d="M82.7936 5.73283L90.0849 4.578L88.2945 12.033H96.1032L94.6932 17.898H86.9314L84.864 26.7447C84.6735 27.4822 84.5655 28.1709 84.5353 28.8109C84.501 29.454 84.5806 30.0061 84.7687 30.471C84.9557 30.9371 85.292 31.2963 85.7798 31.5505C86.2653 31.8087 86.9605 31.9388 87.8723 31.9388C88.6232 31.9388 89.3549 31.8657 90.0623 31.7209C90.7656 31.5784 91.4781 31.3801 92.1994 31.1206L92.7186 36.6044C91.7778 36.9571 90.7592 37.2605 89.6615 37.5158C88.5622 37.7746 87.2607 37.8993 85.7566 37.8993C83.5939 37.8993 81.9172 37.571 80.7226 36.9173C79.5298 36.2588 78.6865 35.3593 78.1818 34.2205C77.6841 33.0859 77.4617 31.7779 77.5239 30.3042C77.5883 28.827 77.8061 27.2743 78.1818 25.6392L82.7936 5.73283V5.73283Z" fill="#4D4D4D"/>
<path d="M95.7969 27.2261C95.7969 25.0477 96.1418 22.9934 96.8312 21.0702C97.5194 19.1453 98.5107 17.4621 99.7971 16.0175C101.079 14.5801 102.64 13.4413 104.479 12.6053C106.308 11.774 108.356 11.3549 110.614 11.3549C112.027 11.3549 113.288 11.4914 114.399 11.7651C115.514 12.0412 116.523 12.3981 117.435 12.8458L115.034 18.4269C114.407 18.1669 113.756 17.9377 113.083 17.7299C112.409 17.5179 111.587 17.4158 110.614 17.4158C108.291 17.4158 106.454 18.2345 105.087 19.8667C103.725 21.5001 103.039 23.6987 103.039 26.4567C103.039 28.0912 103.384 29.4129 104.076 30.424C104.765 31.4352 106.037 31.9381 107.885 31.9381C108.796 31.9381 109.676 31.8407 110.519 31.6507C111.368 31.4583 112.118 31.2161 112.778 30.9299L113.298 36.6512C112.417 37.0003 111.446 37.3156 110.381 37.5917C109.314 37.8583 108.043 37.9966 106.57 37.9966C104.625 37.9966 102.978 37.7057 101.632 37.1327C100.284 36.5508 99.171 35.7784 98.2941 34.7999C97.4125 33.819 96.7795 32.6737 96.3881 31.3592C95.9967 30.0458 95.7969 28.666 95.7969 27.2261V27.2261Z" fill="#4D4D4D"/>
<path d="M126.722 37.9966C125.06 37.9966 123.617 37.7377 122.393 37.2253C121.172 36.7129 120.161 35.9939 119.361 35.0617C118.56 34.1343 117.961 33.0353 117.55 31.7688C117.14 30.503 116.942 29.1012 116.942 27.5652C116.942 25.6385 117.245 23.7124 117.856 21.7916C118.465 19.8667 119.368 18.1372 120.563 16.6C121.749 15.0604 123.212 13.8017 124.935 12.8202C126.655 11.8453 128.635 11.3549 130.858 11.3549C132.489 11.3549 133.925 11.6143 135.166 12.1267C136.401 12.6379 137.418 13.3629 138.223 14.2903C139.018 15.2225 139.623 16.3168 140.029 17.585C140.439 18.8485 140.641 20.2538 140.641 21.791C140.641 23.7118 140.343 25.6379 139.75 27.5646C139.157 29.4818 138.277 31.2155 137.116 32.7562C135.957 34.2934 134.507 35.5516 132.766 36.5289C131.027 37.5062 129.011 37.9966 126.722 37.9966V37.9966ZM130.201 17.4164C129.169 17.4164 128.257 17.7227 127.475 18.3277C126.691 18.9399 126.033 19.7094 125.502 20.6374C124.965 21.5696 124.568 22.5861 124.299 23.691C124.032 24.7983 123.902 25.8451 123.902 26.8396C123.902 28.4445 124.155 29.6943 124.652 30.5938C125.157 31.4886 126.064 31.9387 127.381 31.9387C128.417 31.9387 129.325 31.6347 130.11 31.0231C130.89 30.4157 131.549 29.6456 132.084 28.7158C132.617 27.7884 133.018 26.769 133.287 25.6622C133.55 24.5585 133.684 23.5058 133.684 22.513C133.684 20.9123 133.432 19.6595 132.93 18.7612C132.428 17.8664 131.517 17.4164 130.201 17.4164Z" fill="#4D4D4D"/>
<path d="M148.227 37.3257H141.26L147.139 12.0341H154.151L148.227 37.3257V37.3257ZM151.609 8.95263C150.638 8.95263 149.758 8.65694 148.977 8.06439C148.193 7.4754 147.8 6.56876 147.8 5.34684C147.8 4.67473 147.935 4.04416 148.2 3.44924C148.466 2.8555 148.819 2.34429 149.26 1.90967C149.697 1.47862 150.211 1.13424 150.788 0.874778C151.367 0.619469 151.986 0.491821 152.643 0.491821C153.616 0.491821 154.496 0.787505 155.278 1.38006C156.062 1.97558 156.457 2.88222 156.457 4.09761C156.457 4.7721 156.317 5.40502 156.054 5.99876C155.791 6.5925 155.437 7.10371 154.999 7.53832C154.557 7.96997 154.05 8.31316 153.471 8.57025C152.888 8.82971 152.27 8.95263 151.609 8.95263V8.95263Z" fill="#4D4D4D"/>
<path d="M159.168 13.1842C159.696 13.0262 160.286 12.8363 160.928 12.6296C161.572 12.423 162.292 12.2306 163.096 12.0573C163.891 11.8786 164.788 11.7337 165.775 11.6215C166.761 11.5069 167.886 11.451 169.135 11.451C172.806 11.451 175.337 12.5441 176.734 14.7238C178.131 16.9034 178.372 19.8863 177.466 23.6673L174.264 37.3233H167.257L170.36 23.9546C170.549 23.1198 170.698 22.3129 170.808 21.5245C170.919 20.7431 170.912 20.0544 170.783 19.4583C170.659 18.8693 170.368 18.3871 169.915 18.0137C169.456 17.6461 168.762 17.4615 167.82 17.4615C166.913 17.4615 165.989 17.5612 165.047 17.7536L160.484 37.3227H153.474L159.168 13.1842V13.1842Z" fill="#4D4D4D"/>
</g>
<defs>
<clipPath id="clip0">
<rect width="178" height="38" fill="white"/>
</clipPath>
</defs>
</svg>
