<svg width="163" height="37" viewBox="0 0 163 37" fill="none" xmlns="http://www.w3.org/2000/svg">
<path d="M93.1273 4.08405C92.8564 3.28182 92.5014 2.60114 91.737 2.57075H91.6889H91.0509H89.8232C89.769 2.56467 89.7089 2.55859 89.6487 2.55859H89.0348C88.9746 2.55859 88.9144 2.56467 88.8603 2.57075C88.2223 2.66799 87.9034 3.31221 87.6626 4.06582L78.2139 30.7279C78.2139 31.0804 78.4967 31.3661 78.8458 31.3661H80.8198C81.6022 31.3661 82.0054 30.7158 82.2401 29.9318L84.1239 24.3769C84.2563 23.994 84.6113 23.7388 85.0146 23.7388H95.5226C95.9198 23.7388 96.2748 23.994 96.4072 24.3708L98.3692 29.9865C98.61 30.7705 99.0312 31.4208 99.8497 31.4208H101.914C102.281 31.4208 102.576 31.1351 102.576 30.7826L93.1273 4.08405ZM85.4178 20.5845L90.1843 6.55761L95.0892 20.5845H85.4178Z" fill="#76A62D"/>
<path d="M120.752 2.64368C120.499 2.54644 119.036 2.55859 119.036 2.55859C118.055 2.5829 117.429 2.55859 116.99 3.17242C116.924 3.26359 116.876 3.36083 116.828 3.45807L110.972 16.2513L104.941 3.46414C104.893 3.3669 104.845 3.26966 104.779 3.1785C104.34 2.56467 103.714 2.5829 102.733 2.56467C102.733 2.56467 101.27 2.55251 101.018 2.64975C100.416 2.8807 100.813 3.62824 101.096 4.24207L108.492 19.1442C108.829 19.8249 109.004 20.5724 109.004 21.3321V30.3268C109.004 30.9346 109.491 31.4269 110.093 31.4269H111.64C112.242 31.4269 112.729 30.9346 112.729 30.3268V21.3746C112.729 20.6149 112.904 19.8674 113.241 19.1867L120.667 4.23599C120.956 3.62216 121.353 2.87462 120.752 2.64368Z" fill="#76A62D"/>
<path d="M149.025 16.5612L131.271 1.54365C131.139 1.43425 130.947 1.44033 130.826 1.56796L128.202 4.32716L142.7 16.5612L128.202 28.7953L130.826 31.5545C130.947 31.6821 131.139 31.6882 131.271 31.5788L149.025 16.5612Z" fill="#76A62D"/>
<path d="M161.784 16.6828L144.03 1.66523C143.898 1.55583 143.705 1.56191 143.585 1.68954L140.961 4.44874L155.459 16.6828L140.961 28.9169L143.585 31.6761C143.705 31.8037 143.898 31.8098 144.03 31.7004L161.784 16.6828Z" fill="#76A62D"/>
<path d="M22.9534 2.54041H20.7146C20.2452 2.54041 19.8721 2.92329 19.8721 3.39126V30.4667C19.8721 30.9589 20.2693 31.3661 20.7628 31.3661H22.9173C23.4048 31.3661 23.8081 30.965 23.8081 30.4667V3.39734C23.802 2.92329 23.4229 2.54041 22.9534 2.54041Z" fill="#76A62D"/>
<path d="M14.9434 27.9322H4.94701V3.39724C4.94701 2.92319 4.56786 2.54639 4.10445 2.54639H2.06424C1.59482 2.54639 1.22168 2.92927 1.22168 3.39724V27.9383V30.1809C1.22168 30.74 1.66703 31.1898 2.22072 31.1898H4.95303H14.9494C15.4309 31.1898 15.8161 30.8008 15.8161 30.3146V28.8074C15.8101 28.3273 15.4189 27.9322 14.9434 27.9322Z" fill="#76A62D"/>
<path d="M75.2831 4.13271C74.0373 3.28185 72.3161 2.68018 69.0241 2.68018H63.8302H62.6507C61.8923 2.68018 61.2725 3.30008 61.2725 4.07193V29.9379C61.2725 30.728 61.9044 31.3722 62.6928 31.3722H63.7881C64.5705 31.3722 65.2084 30.734 65.2084 29.9379V20.2199C66.388 20.2199 70.4684 20.2199 70.9499 20.2199C71.5096 20.2199 78.6955 19.0834 78.6955 11.1826C78.6895 7.74276 76.9442 5.27528 75.2831 4.13271ZM69.6439 17.2419C69.2708 17.2419 65.6418 17.2419 65.6418 17.2419H65.2024V5.65816H68.3681C70.5407 5.65816 71.6781 6.0532 72.5026 6.61841C73.604 7.37203 74.7535 9.00081 74.7535 11.2738C74.7595 16.4944 70.0171 17.2419 69.6439 17.2419Z" fill="#76A62D"/>
<path d="M57.631 32.0103C57.4745 31.8948 57.3 31.8097 57.1134 31.7368C55.6329 31.1655 53.4723 29.6522 52.2687 28.8682C51.3358 28.2604 51.4803 27.7803 51.6066 27.5798C51.6307 27.5494 51.6608 27.5129 51.6849 27.4825C51.6909 27.4764 51.6909 27.4764 51.6909 27.4764C53.7371 24.9421 54.9227 21.3321 54.9227 16.7739C54.9227 8.71511 51.5104 2.18176 42.2482 2.18176C33.7262 2.18176 29.6338 8.71511 29.6338 16.7739C29.6338 24.8327 32.3842 31.7307 42.2482 31.7307C44.2523 31.7307 46.0939 31.3418 47.7128 30.5881H47.7188C48.1943 30.3815 48.6577 30.3876 49.2956 30.8556C53.8695 34.2772 56.1384 35.5353 57.7634 35.5353C58.5458 35.5353 58.4073 33.1042 58.4073 33.1042C58.4073 33.1042 58.293 32.4904 57.631 32.0103ZM33.6781 16.8347C33.6781 16.8165 33.6781 16.7982 33.6781 16.7739C33.6901 11.3041 35.6641 5.50009 42.2602 5.50009C49.735 5.50009 50.8784 11.3041 50.8845 16.7739C50.8845 16.7921 50.8845 16.8104 50.8845 16.8347C50.8845 23.3437 48.7961 28.2908 42.2602 28.2908C34.7554 28.2908 33.6781 22.3227 33.6781 16.8347Z" fill="#76A62D"/>
</svg>
