<?xml version="1.0" encoding="UTF-8"?>
<!DOCTYPE svg PUBLIC "-//W3C//DTD SVG 1.1//EN" "http://www.w3.org/Graphics/SVG/1.1/DTD/svg11.dtd">
<!-- Creator: CorelDRAW X8 -->
<svg xmlns="http://www.w3.org/2000/svg" xml:space="preserve" width="29.0067mm" height="17.3612mm" version="1.1" style="shape-rendering:geometricPrecision; text-rendering:geometricPrecision; image-rendering:optimizeQuality; fill-rule:evenodd; clip-rule:evenodd"
viewBox="0 0 693 415"
 xmlns:xlink="http://www.w3.org/1999/xlink">
 <defs>
  <style type="text/css">
   <![CDATA[
    .str0 {stroke:#FEFEFE;stroke-width:1.82176}
    .fil4 {fill:none;fill-rule:nonzero}
    .fil3 {fill:#FEFEFE;fill-rule:nonzero}
    .fil2 {fill:#F9B32A;fill-rule:nonzero}
    .fil1 {fill:#CC0001;fill-rule:nonzero}
    .fil0 {fill:#FE9900;fill-rule:nonzero}
   ]]>
  </style>
 </defs>
 <g id="Слой_x0020_1">
  <metadata id="CorelCorpID_0Corel-Layer"/>
  <polygon class="fil0" points="486,415 496,415 507,414 517,413 527,411 538,409 547,406 557,402 566,399 576,395 585,390 593,385 602,380 610,374 618,368 625,361 633,354 640,347 646,339 652,332 658,323 663,315 668,306 673,297 677,288 681,279 684,269 687,259 689,249 691,239 692,228 693,218 693,207 693,197 692,186 691,176 689,165 687,155 684,146 681,136 677,127 673,117 668,109 663,100 658,91 652,83 646,76 640,68 633,61 625,54 618,47 610,41 602,35 593,30 585,25 576,21 566,16 557,13 547,9 538,7 527,4 517,2 507,1 496,0 486,0 475,0 464,1 454,2 444,4 434,7 424,9 414,13 405,16 396,21 387,25 378,30 370,35 362,41 354,47 346,54 339,61 332,68 326,76 320,83 314,91 308,100 303,109 299,117 295,127 291,136 288,146 285,155 283,165 281,176 279,186 279,197 278,207 279,218 279,228 281,239 283,249 285,259 288,269 291,279 295,288 299,297 303,306 308,315 314,323 320,332 326,339 332,347 339,354 346,361 354,368 362,374 370,380 378,385 387,390 396,395 405,399 414,402 424,406 434,409 444,411 454,413 464,414 475,415 "/>
  <polygon class="fil1" points="208,415 219,415 229,414 239,413 250,411 260,409 270,406 279,402 289,399 298,395 307,390 315,385 324,380 332,374 340,368 347,361 354,354 361,347 368,339 374,332 380,323 385,315 390,306 395,297 399,288 403,279 406,269 409,259 411,249 413,239 414,228 415,218 415,207 415,197 414,186 413,176 411,165 409,155 406,146 403,136 399,127 395,117 390,109 385,100 380,91 374,83 368,76 361,68 354,61 347,54 340,47 332,41 324,35 315,30 307,25 298,21 289,16 279,13 270,9 260,7 250,4 239,2 229,1 219,0 208,0 197,0 187,1 176,2 166,4 156,7 146,9 136,13 127,16 118,21 109,25 100,30 92,35 84,41 76,47 68,54 61,61 54,68 47,76 41,83 35,91 30,100 25,109 21,117 16,127 13,136 9,146 7,155 4,165 2,176 1,186 0,197 0,207 0,218 1,228 2,239 4,249 7,259 9,269 13,279 16,288 21,297 25,306 30,315 35,323 41,332 47,339 54,347 61,354 68,361 76,368 84,374 92,380 100,385 109,390 118,395 127,399 136,402 146,406 156,409 166,411 176,413 187,414 197,415 "/>
  <polygon class="fil2" points="322,80 433,80 433,68 332,68 "/>
  <polygon class="fil2" points="306,105 433,105 433,93 313,93 "/>
  <polygon class="fil2" points="294,130 433,130 433,118 299,118 "/>
  <polygon class="fil2" points="285,155 433,155 433,143 289,143 "/>
  <polygon class="fil2" points="290,276 433,276 433,265 287,265 "/>
  <polygon class="fil2" points="301,301 433,301 433,290 295,290 "/>
  <polygon class="fil2" points="315,326 433,326 433,315 308,315 "/>
  <polygon class="fil2" points="336,351 433,351 433,340 326,340 "/>
  <polygon class="fil2" points="280,180 433,180 433,168 282,168 "/>
  <polygon class="fil2" points="373,251 431,251 431,240 375,240 "/>
  <polygon class="fil2" points="378,226 431,226 431,214 380,214 "/>
  <polygon class="fil2" points="276,214 291,214 291,226 277,226 "/>
  <polygon class="fil3" points="248,201 247,201 246,201 245,200 244,200 243,200 243,200 242,200 241,200 240,200 239,200 237,200 236,199 235,199 233,200 231,200 229,200 228,200 226,200 225,201 224,201 223,202 222,202 221,203 221,203 220,204 220,205 220,206 220,207 220,208 220,208 221,209 222,210 223,212 225,213 227,214 229,214 231,215 233,216 236,217 238,218 240,219 242,220 244,222 245,224 246,227 247,230 247,234 247,238 247,241 246,244 245,247 243,249 242,251 240,253 238,255 236,256 233,257 231,258 229,259 226,259 224,260 222,260 219,260 217,260 214,260 211,260 209,260 207,260 204,260 203,260 201,260 199,259 198,259 196,259 195,259 194,258 193,258 192,258 190,257 189,257 192,241 193,241 194,242 195,242 196,242 197,243 199,243 200,243 202,243 204,244 205,244 207,244 209,244 211,244 213,245 215,245 217,244 219,244 221,243 222,243 223,242 224,241 225,240 225,239 225,237 225,235 225,234 224,232 222,231 220,230 217,229 214,228 212,227 209,226 206,224 204,222 202,220 200,218 199,214 198,211 198,206 198,203 199,201 200,198 200,196 202,194 203,192 204,190 206,189 208,188 210,186 213,185 216,185 219,184 222,184 226,183 230,183 233,183 235,183 237,183 239,183 241,184 243,184 244,184 245,184 246,184 247,184 248,184 249,185 250,185 250,185 251,185 252,185 "/>
  <polygon class="fil3" points="265,168 284,168 281,185 293,185 290,200 278,200 271,239 271,241 272,242 272,243 273,243 274,244 276,244 277,245 279,245 281,245 282,245 283,244 284,244 285,244 286,244 286,243 287,243 284,256 284,257 283,257 283,257 282,258 282,258 281,258 280,258 280,258 279,259 278,259 278,259 277,259 276,259 275,259 274,260 272,260 267,260 264,259 262,259 260,259 258,258 256,258 255,257 254,256 253,255 252,254 252,253 251,252 251,250 251,249 251,247 251,246 251,244 "/>
  <polygon class="fil3" points="308,227 308,228 308,229 308,231 309,232 309,233 310,235 310,236 311,237 312,238 313,239 314,240 316,241 317,242 318,243 320,243 321,243 323,244 325,244 326,244 328,244 330,244 332,244 334,244 336,244 338,244 339,243 341,243 343,242 345,242 347,241 349,240 351,239 348,256 347,256 346,257 345,257 344,258 343,258 342,258 341,259 340,259 338,259 337,259 335,259 334,260 332,260 330,260 328,260 326,260 322,260 319,259 315,259 312,258 308,257 305,256 302,254 299,252 296,249 294,246 292,243 290,240 289,235 288,231 288,226 288,220 289,218 289,215 290,212 290,209 291,206 293,203 294,200 296,197 298,194 301,192 304,189 308,187 312,186 316,184 321,183 327,183 330,183 333,184 336,184 338,185 341,186 344,187 346,189 349,191 351,193 353,196 354,199 355,203 356,207 356,212 355,217 354,223 354,227 303,227 306,213 337,213 337,212 337,210 337,208 336,207 336,206 335,205 335,204 334,203 333,202 332,201 331,200 330,200 329,199 328,199 327,199 325,199 324,199 323,199 322,199 320,200 319,200 318,201 317,202 316,203 315,204 314,205 314,206 313,207 312,208 312,210 311,211 311,212 "/>
  <polygon class="fil3" points="475,189 474,188 474,188 473,187 471,187 470,187 469,186 468,186 467,185 465,185 464,185 463,184 461,184 460,184 458,184 456,184 455,184 453,184 451,184 449,184 447,185 445,185 443,186 441,187 439,188 437,190 436,192 434,194 432,196 431,199 429,203 428,207 427,211 426,214 426,216 426,219 426,221 426,224 427,226 427,228 428,230 429,232 430,234 432,235 433,237 435,238 438,239 440,240 443,241 443,241 445,241 446,241 447,241 449,241 450,241 452,241 454,241 456,241 457,241 459,240 461,240 463,239 464,238 466,237 467,236 464,254 464,255 463,255 463,256 462,256 461,257 460,257 459,258 458,258 456,258 454,259 452,259 450,259 447,260 444,260 440,260 437,259 433,259 430,258 427,257 424,256 421,254 418,252 415,250 412,247 410,244 408,240 406,236 405,232 404,227 404,222 404,217 405,211 405,208 406,205 407,203 407,200 408,198 409,195 410,193 411,191 412,188 413,186 414,184 416,183 417,181 418,179 420,178 421,176 423,175 424,173 426,172 428,171 430,170 432,169 433,168 436,168 438,167 440,166 442,166 444,165 447,165 449,165 452,165 455,165 457,165 459,165 461,165 463,165 465,166 467,166 469,166 471,167 472,167 474,168 475,168 476,168 477,169 478,169 478,169 479,169 "/>
  <polygon class="fil3" points="648,260 628,260 630,252 630,251 629,253 627,254 626,255 625,256 624,257 622,258 621,258 620,259 619,259 617,260 616,260 614,260 613,260 612,261 610,261 609,261 605,260 602,260 599,258 596,257 594,255 591,252 589,250 588,247 586,244 585,240 584,237 584,233 584,230 584,226 584,223 585,219 586,215 587,211 588,207 590,204 592,201 594,198 596,196 599,193 601,191 604,190 606,188 609,187 612,186 615,185 617,185 620,185 622,185 624,185 626,185 628,186 629,186 631,187 632,188 633,189 634,189 636,190 636,191 637,192 638,193 639,194 639,195 640,196 644,168 664,168 "/>
  <polygon class="fil0" points="616,243 618,243 620,242 621,242 623,241 625,240 626,239 627,238 628,237 629,235 630,234 631,232 632,230 633,229 633,227 634,225 634,223 635,221 635,219 635,217 635,215 635,213 634,212 634,210 633,208 633,207 632,206 631,204 630,203 629,203 627,202 626,202 624,202 623,202 621,202 619,203 618,203 616,204 615,205 614,206 612,208 611,209 610,211 609,213 609,214 608,216 607,218 607,220 606,222 606,225 606,229 607,232 608,235 609,238 611,241 613,242 "/>
  <polygon class="fil3" points="186,244 183,260 166,260 166,257 166,254 167,252 167,251 166,252 165,253 164,254 162,255 160,256 159,257 157,258 155,259 153,259 151,260 149,260 147,261 145,261 143,261 141,261 139,260 136,260 134,259 132,258 130,257 129,256 128,255 126,253 125,252 125,250 124,249 123,247 123,246 123,244 122,243 122,241 122,240 123,237 123,234 124,232 125,229 126,227 127,225 128,223 130,221 132,220 134,218 136,217 138,216 140,215 142,214 145,214 147,213 147,213 148,213 148,213 149,213 150,213 151,213 152,213 153,212 154,212 155,212 157,212 158,212 159,212 160,212 161,212 162,212 163,212 165,212 167,212 168,212 169,212 170,212 171,212 171,212 171,212 172,210 172,209 172,207 172,206 171,205 171,203 169,202 168,201 167,201 165,200 163,200 161,200 159,200 157,200 155,200 152,200 150,200 148,201 146,201 144,201 142,202 140,202 138,202 137,203 135,203 134,204 134,204 139,187 140,186 142,186 143,185 145,185 147,185 148,184 150,184 152,184 154,184 156,184 158,184 160,184 163,184 165,184 167,184 170,184 172,184 174,184 176,185 178,186 181,186 183,187 185,189 187,190 188,191 190,193 191,195 192,197 193,199 194,202 194,204 193,207 "/>
  <polygon class="fil1" points="169,226 169,225 169,225 168,225 168,225 167,225 166,225 165,225 164,225 163,225 162,225 161,225 159,225 158,225 157,225 157,226 156,226 155,226 155,226 154,226 153,227 152,227 151,228 150,228 149,229 148,229 148,230 147,231 146,232 145,233 145,234 144,235 144,236 144,238 144,240 145,242 146,243 147,243 148,244 149,244 151,244 153,244 155,244 156,244 158,243 159,243 161,242 162,241 163,241 164,240 165,239 165,238 166,237 166,237 167,236 167,235 167,234 168,232 168,230 169,228 "/>
  <polygon class="fil3" points="39,260 20,260 36,168 69,168 72,222 95,168 129,168 113,260 94,260 106,191 105,191 77,260 55,260 55,257 55,249 54,238 53,226 53,213 52,202 52,194 51,191 51,191 51,191 50,191 "/>
  <polygon class="fil3" points="486,187 486,187 481,204 482,204 487,187 486,188 486,187 486,187 486,187 "/>
  <polygon class="fil3" points="517,183 517,183 515,183 513,183 510,183 508,183 506,183 504,183 502,183 500,184 498,184 496,184 494,184 493,185 491,185 489,186 488,186 486,187 486,188 488,187 490,186 491,186 493,186 495,185 496,185 498,185 500,184 502,184 504,184 506,184 508,184 510,184 513,184 515,184 517,184 "/>
  <polygon class="fil3" points="534,244 534,244 541,207 540,207 533,244 "/>
  <polygon class="fil3" points="539,260 559,260 566,220 566,218 566,217 567,215 567,214 568,212 569,211 570,209 571,208 572,207 573,206 575,205 577,204 579,203 581,202 584,202 586,202 587,202 588,202 588,202 591,184 589,184 587,184 586,185 584,185 582,186 581,186 580,187 578,188 577,189 576,190 575,191 574,192 573,193 571,195 570,196 569,197 572,185 552,185 "/>
  <polygon class="fil3" points="353,260 373,260 373,260 380,220 380,218 381,217 381,215 382,214 382,213 383,211 384,210 385,209 386,208 387,207 389,206 390,205 392,204 394,204 397,204 400,203 400,203 400,203 400,203 401,203 401,204 401,204 402,204 402,204 402,203 402,203 402,201 403,200 403,198 404,196 404,194 405,192 405,191 406,189 407,188 408,187 408,186 409,185 409,184 409,184 409,184 409,184 408,184 408,184 407,184 407,184 406,184 406,184 404,184 402,184 400,185 398,185 397,186 395,186 394,187 393,188 391,189 390,190 389,191 388,192 387,193 386,195 385,196 384,197 387,185 366,185 "/>
  <polygon class="fil4 str0" points="248,201 248,201 247,201 246,201 245,200 244,200 243,200 243,200 242,200 241,200 240,200 239,200 237,200 236,199 235,199 233,200 231,200 229,200 228,200 226,200 225,201 224,201 223,202 222,202 221,203 221,203 220,204 220,205 220,206 220,207 220,208 220,208 221,209 222,210 223,212 225,213 227,214 229,214 231,215 233,216 236,217 238,218 240,219 242,220 244,222 245,224 246,227 247,230 247,234 247,238 247,241 246,244 245,247 243,249 242,251 240,253 238,255 236,256 233,257 231,258 229,259 226,259 224,260 222,260 219,260 217,260 214,260 211,260 209,260 207,260 204,260 203,260 201,260 199,259 198,259 196,259 195,259 194,258 193,258 192,258 190,257 189,257 192,241 193,241 194,242 195,242 196,242 197,243 199,243 200,243 202,243 204,244 205,244 207,244 209,244 211,244 213,245 215,245 217,244 219,244 221,243 222,243 223,242 224,241 225,240 225,239 225,237 225,235 225,234 224,232 222,231 220,230 217,229 214,228 212,227 209,226 206,224 204,222 202,220 200,218 199,214 198,211 198,206 198,203 199,201 200,198 200,196 202,194 203,192 204,190 206,189 208,188 210,186 213,185 216,185 219,184 222,184 226,183 230,183 233,183 235,183 237,183 239,183 241,184 243,184 244,184 245,184 246,184 247,184 248,184 249,185 250,185 250,185 251,185 252,185 "/>
  <polygon class="fil4 str0" points="265,168 284,168 281,185 293,185 290,200 278,200 271,239 271,241 272,242 272,243 273,243 274,244 276,244 277,245 279,245 281,245 282,245 283,244 284,244 285,244 286,244 286,243 287,243 284,256 284,257 283,257 283,257 282,258 282,258 281,258 280,258 280,258 279,259 278,259 278,259 277,259 276,259 275,259 274,260 272,260 267,260 264,259 262,259 260,259 258,258 256,258 255,257 254,256 253,255 252,254 252,253 251,252 251,250 251,249 251,247 251,246 251,244 "/>
  <polygon class="fil4 str0" points="308,227 308,227 308,228 308,229 308,231 309,232 309,233 310,235 310,236 311,237 312,238 313,239 314,240 316,241 317,242 318,243 320,243 321,243 323,244 325,244 326,244 328,244 330,244 332,244 334,244 336,244 338,244 339,243 341,243 343,242 345,242 347,241 349,240 351,239 348,256 347,256 346,257 345,257 344,258 343,258 342,258 341,259 340,259 338,259 337,259 335,259 334,260 332,260 330,260 328,260 326,260 322,260 319,259 315,259 312,258 308,257 305,256 302,254 299,252 296,249 294,246 292,243 290,240 289,235 288,231 288,226 288,220 289,218 289,215 290,212 290,209 291,206 293,203 294,200 296,197 298,194 301,192 304,189 308,187 312,186 316,184 321,183 327,183 330,183 333,184 336,184 338,185 341,186 344,187 346,189 349,191 351,193 353,196 354,199 355,203 356,207 356,212 355,217 354,223 354,227 303,227 306,213 337,213 337,212 337,210 337,208 336,207 336,206 335,205 335,204 334,203 333,202 332,201 331,200 330,200 329,199 328,199 327,199 325,199 324,199 323,199 322,199 320,200 319,200 318,201 317,202 316,203 315,204 314,205 314,206 313,207 312,208 312,210 311,211 311,212 "/>
  <polygon class="fil4 str0" points="475,189 475,189 474,188 474,188 473,187 471,187 470,187 469,186 468,186 467,185 465,185 464,185 463,184 461,184 460,184 458,184 456,184 455,184 453,184 451,184 449,184 447,185 445,185 443,186 441,187 439,188 437,190 436,192 434,194 432,196 431,199 429,203 428,207 427,211 426,214 426,216 426,219 426,221 426,224 427,226 427,228 428,230 429,232 430,234 432,235 433,237 435,238 438,239 440,240 443,241 443,241 445,241 446,241 447,241 449,241 450,241 452,241 454,241 456,241 457,241 459,240 461,240 463,239 464,238 466,237 467,236 464,254 464,255 463,255 463,256 462,256 461,257 460,257 459,258 458,258 456,258 454,259 452,259 450,259 447,260 444,260 440,260 437,259 433,259 430,258 427,257 424,256 421,254 418,252 415,250 412,247 410,244 408,240 406,236 405,232 404,227 404,222 404,217 405,211 405,208 406,205 407,203 407,200 408,198 409,195 410,193 411,191 412,188 413,186 414,184 416,183 417,181 418,179 420,178 421,176 423,175 424,173 426,172 428,171 430,170 432,169 433,168 436,168 438,167 440,166 442,166 444,165 447,165 449,165 452,165 455,165 457,165 459,165 461,165 463,165 465,166 467,166 469,166 471,167 472,167 474,168 475,168 476,168 477,169 478,169 478,169 479,169 "/>
  <polygon class="fil4 str0" points="648,260 628,260 630,252 630,251 629,253 627,254 626,255 625,256 624,257 622,258 621,258 620,259 619,259 617,260 616,260 614,260 613,260 612,261 610,261 609,261 605,260 602,260 599,258 596,257 594,255 591,252 589,250 588,247 586,244 585,240 584,237 584,233 584,230 584,226 584,223 585,219 586,215 587,211 588,207 590,204 592,201 594,198 596,196 599,193 601,191 604,190 606,188 609,187 612,186 615,185 617,185 620,185 622,185 624,185 626,185 628,186 629,186 631,187 632,188 633,189 634,189 636,190 636,191 637,192 638,193 639,194 639,195 640,196 644,168 664,168 "/>
  <polygon class="fil4 str0" points="186,244 183,260 166,260 166,257 166,254 167,252 167,251 166,252 165,253 164,254 162,255 160,256 159,257 157,258 155,259 153,259 151,260 149,260 147,261 145,261 143,261 141,261 139,260 136,260 134,259 132,258 130,257 129,256 128,255 126,253 125,252 125,250 124,249 123,247 123,246 123,244 122,243 122,241 122,240 123,237 123,234 124,232 125,229 126,227 127,225 128,223 130,221 132,220 134,218 136,217 138,216 140,215 142,214 145,214 147,213 147,213 148,213 148,213 149,213 150,213 151,213 152,213 153,212 154,212 155,212 157,212 158,212 159,212 160,212 161,212 162,212 163,212 165,212 167,212 168,212 169,212 170,212 171,212 171,212 171,212 172,210 172,209 172,207 172,206 171,205 171,203 169,202 168,201 167,201 165,200 163,200 161,200 159,200 157,200 155,200 152,200 150,200 148,201 146,201 144,201 142,202 140,202 138,202 137,203 135,203 134,204 134,204 139,187 140,186 142,186 143,185 145,185 147,185 148,184 150,184 152,184 154,184 156,184 158,184 160,184 163,184 165,184 167,184 170,184 172,184 174,184 176,185 178,186 181,186 183,187 185,189 187,190 188,191 190,193 191,195 192,197 193,199 194,202 194,204 193,207 "/>
  <polygon class="fil4 str0" points="39,260 20,260 36,168 69,168 72,222 95,168 129,168 113,260 94,260 106,191 105,191 77,260 55,260 55,257 55,249 54,238 53,226 53,213 52,202 52,194 51,191 51,191 51,191 50,191 "/>
  <path class="fil3" d="M534 244l-3 15 -17 0c0,0 0,-7 0,-8l0 -1 0 1 0 0 -1 1 -1 1 -2 1 -1 1 -1 1 -2 1 -2 0 -1 1 -2 1 -2 0 -2 1 -2 0 -2 0 -2 0 -2 0 -2 0 -2 -1 -3 -1 -1 -1 -2 -1 -2 -1 -1 -1 -1 -1 -1 -2 -1 -1 0 -2 -1 -1 0 -2 -1 -1 0 -2 0 -1 0 -2 0 -2 1 -3 0 -2 1 -3 1 -2 1 -2 2 -2 1 -2 2 -1 2 -2 2 -1 2 -1 2 -1 3 -1 2 0 2 -1 0 0 0 0 0 0 0 0 1 0 0 0 1 0 1 0 1 0 1 0 1 0 1 -1 1 0 2 0 1 0 1 0 1 0 1 0 1 0 1 0 2 0 2 0 1 0 1 0 2 0 0 0 1 0 0 0 0 -1 0 -1 0 -1 1 -2c0,-3 -3,-5 -6,-7l-2 0 -2 0 -1 0 -3 0 -2 0 -2 0 -2 0 -3 0 -2 0 -2 1 -2 0 -2 0 -2 1 -2 0 -1 0 -1 1 -1 0 -1 1 5 -17 1 -1 2 0 2 -1 1 0 2 -1 2 0 2 0 1 0 2 0 2 0 2 -1 3 0 2 0 2 0 2 1 3 0 2 0 2 0 2 1 2 0 2 1 3 1 2 1 2 2 1 1 2 2 1 2 1 2 1 2 1 2 0 3 -1 3 -7 37zm-17 -18l0 -1 0 0 -1 0 -1 -1 0 0 -1 0 -1 0 -1 0 -1 0 -2 1 -1 0 -1 0 -1 0 -1 0 -1 0 0 1 -1 0 0 0 -1 0 -1 0 -1 1 -1 0 -1 1 0 0 -1 1 -1 1 -1 0 -1 1 0 1 -1 1 0 1 -1 2 0 2 1 2 0 1 1 1 1 1 1 1 2 0 1 0 2 0 2 0 2 -1 1 0 2 -1 1 -1 1 0 1 -1 1 -1 1 -1 1 -1 1 0 0 -1 1 -1 0 -1 0 -1 0 -2 1 -2 0 -2 0 -1zm3 -14l0 0 0 0 0 0z"/>
  <polygon class="fil4 str0" points="539,260 559,260 566,220 566,218 566,217 567,215 567,214 568,212 569,211 570,209 571,208 572,207 573,206 575,205 577,204 579,203 581,202 584,202 586,202 587,202 588,202 588,202 591,184 589,184 587,184 586,185 584,185 582,186 581,186 580,187 578,188 577,189 576,190 575,191 574,192 573,193 571,195 570,196 569,197 572,185 552,185 "/>
  <polygon class="fil4 str0" points="353,260 373,260 373,260 380,220 380,218 381,217 381,215 382,214 382,213 383,211 384,210 385,209 386,208 387,207 389,206 390,205 392,204 394,204 397,204 400,203 400,203 400,203 400,203 401,203 401,204 401,204 402,204 402,204 402,203 402,203 402,201 403,200 403,198 404,196 404,194 405,192 405,191 406,189 407,188 408,187 408,186 409,185 409,184 409,184 409,184 409,184 408,184 408,184 407,184 407,184 406,184 406,184 404,184 402,184 400,185 398,185 397,186 395,186 394,187 393,188 391,189 390,190 389,191 388,192 387,193 386,195 385,196 384,197 387,185 366,185 "/>
 </g>
</svg>
