<svg width="175" height="47" viewBox="0 0 175 47" fill="none" xmlns="http://www.w3.org/2000/svg">
<path d="M104.926 32.4238H107.305V33.4492H104.926V36.1445H103.836V33.4492H101.457V32.4238H103.836V29.9336H104.926V32.4238ZM116.316 31.5391H114.189V37H113.105V31.5391H111.02V30.6602H116.316V31.5391ZM119.533 37.1172C118.674 37.1172 117.975 36.8359 117.436 36.2734C116.896 35.707 116.627 34.9512 116.627 34.0059V33.8066C116.627 33.1777 116.746 32.6172 116.984 32.125C117.227 31.6289 117.562 31.2422 117.992 30.9648C118.426 30.6836 118.895 30.543 119.398 30.543C120.223 30.543 120.863 30.8145 121.32 31.3574C121.777 31.9004 122.006 32.6777 122.006 33.6895V34.1406H117.711C117.727 34.7656 117.908 35.2715 118.256 35.6582C118.607 36.041 119.053 36.2324 119.592 36.2324C119.975 36.2324 120.299 36.1543 120.564 35.998C120.83 35.8418 121.062 35.6348 121.262 35.377L121.924 35.8926C121.393 36.709 120.596 37.1172 119.533 37.1172ZM119.398 31.4336C118.961 31.4336 118.594 31.5938 118.297 31.9141C118 32.2305 117.816 32.6758 117.746 33.25H120.922V33.168C120.891 32.6172 120.742 32.1914 120.477 31.8906C120.211 31.5859 119.852 31.4336 119.398 31.4336ZM128.621 33.9004C128.621 34.8652 128.4 35.6426 127.959 36.2324C127.518 36.8223 126.92 37.1172 126.166 37.1172C125.396 37.1172 124.791 36.873 124.35 36.3848V39.4375H123.266V30.6602H124.256L124.309 31.3633C124.75 30.8164 125.363 30.543 126.148 30.543C126.91 30.543 127.512 30.8301 127.953 31.4043C128.398 31.9785 128.621 32.7773 128.621 33.8008V33.9004ZM127.537 33.7773C127.537 33.0625 127.385 32.498 127.08 32.084C126.775 31.6699 126.357 31.4629 125.826 31.4629C125.17 31.4629 124.678 31.7539 124.35 32.3359V35.3652C124.674 35.9434 125.17 36.2324 125.838 36.2324C126.357 36.2324 126.77 36.0273 127.074 35.6172C127.383 35.2031 127.537 34.5898 127.537 33.7773ZM133.654 35.5645L135.811 30.6602H137.164V37H136.08V32.3887L134.029 37H133.279L131.188 32.2891V37H130.104V30.6602H131.51L133.654 35.5645ZM143.012 30.6602H144.096V37H143.012V32.377L140.088 37H139.004V30.6602H140.088V35.2891L143.012 30.6602ZM151.016 37H149.932V34.293H147.02V37H145.93V30.6602H147.02V33.4082H149.932V30.6602H151.016V37ZM156.676 37C156.613 36.875 156.562 36.6523 156.523 36.332C156.02 36.8555 155.418 37.1172 154.719 37.1172C154.094 37.1172 153.58 36.9414 153.178 36.5898C152.779 36.2344 152.58 35.7852 152.58 35.2422C152.58 34.582 152.83 34.0703 153.33 33.707C153.834 33.3398 154.541 33.1562 155.451 33.1562H156.506V32.6582C156.506 32.2793 156.393 31.9785 156.166 31.7559C155.939 31.5293 155.605 31.416 155.164 31.416C154.777 31.416 154.453 31.5137 154.191 31.709C153.93 31.9043 153.799 32.1406 153.799 32.418H152.709C152.709 32.1016 152.82 31.7969 153.043 31.5039C153.27 31.207 153.574 30.9727 153.957 30.8008C154.344 30.6289 154.768 30.543 155.229 30.543C155.959 30.543 156.531 30.7266 156.945 31.0938C157.359 31.457 157.574 31.959 157.59 32.5996V35.5176C157.59 36.0996 157.664 36.5625 157.812 36.9062V37H156.676ZM154.877 36.1738C155.217 36.1738 155.539 36.0859 155.844 35.9102C156.148 35.7344 156.369 35.5059 156.506 35.2246V33.9238H155.656C154.328 33.9238 153.664 34.3125 153.664 35.0898C153.664 35.4297 153.777 35.6953 154.004 35.8867C154.23 36.0781 154.521 36.1738 154.877 36.1738ZM164.486 30.6602V37H163.396V31.5566H161.24L161.111 33.9297C161.041 35.0195 160.857 35.7988 160.561 36.2676C160.268 36.7363 159.801 36.9805 159.16 37H158.727V36.0449L159.037 36.0215C159.389 35.9824 159.641 35.7793 159.793 35.4121C159.945 35.0449 160.043 34.3652 160.086 33.373L160.203 30.6602H164.486ZM167.41 32.8457H169.057C169.775 32.8535 170.344 33.041 170.762 33.4082C171.18 33.7754 171.389 34.2734 171.389 34.9023C171.389 35.5352 171.174 36.043 170.744 36.4258C170.314 36.8086 169.736 37 169.01 37H166.326V30.6602H167.41V32.8457ZM173.65 37H172.561V30.6602H173.65V37ZM167.41 33.7305V36.1152H169.021C169.428 36.1152 169.742 36.0117 169.965 35.8047C170.188 35.5938 170.299 35.3066 170.299 34.9434C170.299 34.5918 170.189 34.3047 169.971 34.082C169.756 33.8555 169.453 33.7383 169.062 33.7305H167.41Z" fill="black"/>
<path fill-rule="evenodd" clip-rule="evenodd" d="M26.9975 24.5394V11.825C26.9975 8.21835 25.0666 6.5061 21.8243 6.5061C19.1284 6.5061 16.7968 8.10906 15.7767 9.71202C15.121 7.70832 13.4816 6.5061 10.895 6.5061C8.19912 6.5061 5.86755 8.18192 5.13893 9.23842V6.94327H0.512207V24.5394H5.13893V12.6994C5.83112 11.7157 7.17906 10.6228 8.78202 10.6228C10.6764 10.6228 11.405 11.7886 11.405 13.428V24.5394H16.0682V12.6629C16.7239 11.7157 18.0719 10.6228 19.7113 10.6228C21.6057 10.6228 22.3343 11.7886 22.3343 13.428V24.5394H26.9975ZM39.7118 24.9766C33.9193 24.9766 30.422 20.7506 30.422 15.7231C30.422 10.7321 33.9193 6.5061 39.7118 6.5061C45.5408 6.5061 49.0381 10.7321 49.0381 15.7231C49.0381 20.7506 45.5408 24.9766 39.7118 24.9766ZM39.7118 20.8599C42.5899 20.8599 44.2293 18.4919 44.2293 15.7231C44.2293 12.9908 42.5899 10.6228 39.7118 10.6228C36.8338 10.6228 35.2308 12.9908 35.2308 15.7231C35.2308 18.4919 36.8338 20.8599 39.7118 20.8599ZM68.9658 24.5394V12.1165C68.9658 8.69195 67.1079 6.5061 63.2462 6.5061C60.3681 6.5061 58.2187 7.89047 57.0894 9.23842V6.94327H52.4626V24.5394H57.0894V12.6994C57.8544 11.6429 59.2752 10.6228 61.0968 10.6228C63.064 10.6228 64.3391 11.4607 64.3391 13.9016V24.5394H68.9658V24.5394ZM81.7166 24.9766C75.9241 24.9766 72.4268 20.7506 72.4268 15.7231C72.4268 10.7321 75.9241 6.5061 81.7166 6.5061C87.5456 6.5061 91.0429 10.7321 91.0429 15.7231C91.0429 20.7506 87.5456 24.9766 81.7166 24.9766ZM81.7166 20.8599C84.5947 20.8599 86.2341 18.4919 86.2341 15.7231C86.2341 12.9908 84.5947 10.6228 81.7166 10.6228C78.8386 10.6228 77.2356 12.9908 77.2356 15.7231C77.2356 18.4919 78.8386 20.8599 81.7166 20.8599ZM99.0942 18.8926C99.8592 20.022 101.571 20.8599 103.065 20.8599C105.761 20.8599 107.546 18.8197 107.546 15.7595C107.546 12.6993 105.761 10.6228 103.065 10.6228C101.571 10.6228 99.8592 11.4971 99.0942 12.6629V18.8926ZM99.0942 24.5394H94.4674V0.23999H99.0942V9.20199C100.479 7.41687 102.446 6.5061 104.522 6.5061C109.003 6.5061 112.319 10.0035 112.319 15.7595C112.319 21.6249 108.967 24.9766 104.522 24.9766C102.409 24.9766 100.479 24.0294 99.0942 22.2807V24.5394ZM131.008 24.5394H126.381V22.7178C125.179 24.1386 123.102 24.9766 120.807 24.9766C118.002 24.9766 114.687 23.0821 114.687 19.1476C114.687 15.0309 118.002 13.4644 120.807 13.4644C123.139 13.4644 125.215 14.2294 126.381 15.6138V13.2458C126.381 11.4607 124.851 10.2949 122.519 10.2949C120.625 10.2949 118.876 10.9871 117.382 12.3715L115.634 9.27485C117.783 7.38044 120.552 6.5061 123.321 6.5061C127.328 6.5061 131.008 8.10906 131.008 13.173V24.5394ZM122.665 21.8435C124.159 21.8435 125.616 21.3335 126.381 20.3134V18.1276C125.616 17.1075 124.159 16.5975 122.665 16.5975C120.843 16.5975 119.35 17.5447 119.35 19.2569C119.35 20.8963 120.843 21.8435 122.665 21.8435V21.8435ZM152.101 24.5394V12.1165C152.101 8.69195 150.243 6.5061 146.381 6.5061C143.503 6.5061 141.354 7.89047 140.225 9.23842V6.94327H135.598V24.5394H140.225V12.6994C140.99 11.6429 142.41 10.6228 144.232 10.6228C146.199 10.6228 147.474 11.4607 147.474 13.9016V24.5394H152.101ZM173.887 24.5394L166.71 14.9216L173.668 6.94327H167.985L161.318 14.7759V0.23999H156.691V24.5394H161.318V20.022L163.431 17.7632L168.094 24.5394H173.887Z" fill="black"/>
</svg>
