<svg width="144" height="39" viewBox="0 0 144 39" fill="none" xmlns="http://www.w3.org/2000/svg">
<path d="M53.6647 7.97607H45.7226C45.4597 7.97591 45.2054 8.0713 45.0054 8.24508C44.8055 8.41886 44.6731 8.65959 44.6322 8.92389L41.42 29.6494C41.4053 29.7456 41.4112 29.8439 41.4373 29.9375C41.4634 30.0312 41.5092 30.1179 41.5715 30.1918C41.6337 30.2657 41.711 30.325 41.7979 30.3657C41.8848 30.4063 41.9794 30.4272 42.075 30.4271H45.8666C46.1297 30.4272 46.3842 30.3316 46.5842 30.1576C46.7841 29.9836 46.9164 29.7426 46.9571 29.4781L47.8234 23.8881C47.8641 23.6238 47.9962 23.3829 48.1959 23.2089C48.3956 23.0349 48.6498 22.9392 48.9127 22.9391H51.4269C56.6585 22.9391 59.6779 20.3627 60.4664 15.2573C60.8217 13.0236 60.4815 11.2686 59.4537 10.0395C58.3249 8.68989 56.3229 7.97607 53.6647 7.97607V7.97607ZM54.581 15.5456C54.1466 18.4458 51.9692 18.4458 49.8638 18.4458H48.6653L49.5061 13.0295C49.5307 12.8711 49.6101 12.7268 49.73 12.6225C49.8498 12.5183 50.0023 12.4611 50.1599 12.4611H50.7092C52.1434 12.4611 53.4963 12.4611 54.1954 13.2931C54.6123 13.7894 54.74 14.5269 54.581 15.5456V15.5456ZM77.405 15.4523H73.6017C73.4441 15.4523 73.2916 15.5095 73.1718 15.6137C73.0519 15.7179 72.9725 15.8623 72.9479 16.0207L72.7795 17.1033L72.5136 16.7109C71.6902 15.4948 69.8542 15.0883 68.0217 15.0883C63.819 15.0883 60.2295 18.3276 59.5304 22.8717C59.1669 25.1384 59.6837 27.3059 60.9471 28.8174C62.1061 30.2073 63.7644 30.7863 65.7375 30.7863C69.1238 30.7863 71.0016 28.5704 71.0016 28.5704L70.832 29.6459C70.8169 29.742 70.8225 29.8404 70.8483 29.9341C70.8742 30.0279 70.9197 30.1149 70.9817 30.189C71.0437 30.2631 71.1208 30.3227 71.2077 30.3636C71.2945 30.4045 71.389 30.4257 71.4847 30.4259H74.9105C75.1736 30.426 75.4281 30.3305 75.628 30.1564C75.828 29.9824 75.9602 29.7414 76.001 29.4769L78.0564 16.2299C78.0716 16.134 78.066 16.0358 78.0403 15.9423C78.0145 15.8487 77.969 15.762 77.9071 15.688C77.8452 15.6141 77.7682 15.5547 77.6815 15.514C77.5948 15.4733 77.5004 15.4522 77.405 15.4523V15.4523ZM72.1037 22.9852C71.7367 25.1963 70.0122 26.6807 67.8127 26.6807C66.7083 26.6807 65.8257 26.3203 65.259 25.6372C64.697 24.9588 64.4833 23.9933 64.6621 22.9178C65.0047 20.7255 66.7582 19.1927 68.924 19.1927C70.004 19.1927 70.882 19.5579 71.4603 20.2469C72.0398 20.943 72.2697 21.9144 72.1037 22.9852V22.9852ZM97.6602 15.4523H93.8384C93.6581 15.4525 93.4807 15.4976 93.3214 15.5835C93.1622 15.6693 93.0259 15.7935 92.9244 15.9451L87.6533 23.8467L85.419 16.2535C85.3504 16.0219 85.2104 15.819 85.0197 15.6747C84.8289 15.5304 84.5976 15.4524 84.3599 15.4523H80.6043C80.4989 15.452 80.3949 15.4773 80.3011 15.5262C80.2072 15.575 80.1262 15.646 80.0647 15.7332C80.0033 15.8203 79.9632 15.9212 79.9477 16.0273C79.9323 16.1335 79.942 16.2418 79.976 16.3433L84.1857 28.9155L80.228 34.6013C80.1577 34.7021 80.116 34.8206 80.1075 34.944C80.0989 35.0673 80.1239 35.1906 80.1797 35.3005C80.2355 35.4103 80.3198 35.5024 80.4236 35.5667C80.5274 35.631 80.6466 35.6649 80.7681 35.6649H84.5852C84.7634 35.6651 84.9391 35.6214 85.097 35.5374C85.255 35.4534 85.3906 35.3317 85.4922 35.1827L98.2037 16.51C98.2726 16.409 98.313 16.2907 98.3205 16.1679C98.3281 16.0452 98.3024 15.9227 98.2464 15.8137C98.1905 15.7048 98.1062 15.6135 98.0029 15.5498C97.8995 15.486 97.781 15.4523 97.6602 15.4523V15.4523Z" fill="#253B80"/>
<path d="M110.313 7.97604H102.37C102.107 7.97615 101.853 8.07167 101.654 8.24543C101.454 8.41918 101.322 8.65975 101.281 8.92385L98.0687 29.6494C98.0537 29.7454 98.0594 29.8436 98.0854 29.9371C98.1113 30.0307 98.1568 30.1174 98.2189 30.1913C98.2809 30.2652 98.3579 30.3246 98.4447 30.3653C98.5314 30.406 98.6258 30.427 98.7213 30.427H102.797C102.981 30.4268 103.159 30.3597 103.299 30.238C103.438 30.1162 103.531 29.9477 103.559 29.7629L104.471 23.888C104.512 23.6237 104.644 23.3829 104.843 23.2089C105.043 23.0349 105.297 22.9392 105.56 22.939H108.073C113.306 22.939 116.324 20.3627 117.114 15.2572C117.47 13.0236 117.128 11.2686 116.1 10.0395C114.972 8.68985 112.972 7.97604 110.313 7.97604V7.97604ZM111.23 15.5456C110.796 18.4458 108.619 18.4458 106.512 18.4458H105.315L106.157 13.0295C106.181 12.871 106.26 12.7266 106.38 12.6223C106.5 12.518 106.652 12.4608 106.81 12.461H107.359C108.792 12.461 110.146 12.461 110.845 13.293C111.262 13.7894 111.389 14.5269 111.23 15.5456V15.5456ZM134.052 15.4522H130.252C130.094 15.4518 129.941 15.5089 129.822 15.6132C129.702 15.7175 129.623 15.8621 129.599 16.0207L129.43 17.1032L129.163 16.7109C128.34 15.4948 126.505 15.0882 124.673 15.0882C120.47 15.0882 116.882 18.3276 116.182 22.8717C115.82 25.1384 116.335 27.3059 117.598 28.8174C118.759 30.2072 120.415 30.7863 122.388 30.7863C125.775 30.7863 127.653 28.5704 127.653 28.5704L127.483 29.6459C127.468 29.7422 127.473 29.8408 127.499 29.9347C127.525 30.0286 127.571 30.1157 127.633 30.1899C127.696 30.264 127.773 30.3236 127.86 30.3643C127.947 30.4051 128.042 30.4261 128.138 30.4259H131.563C131.826 30.4257 132.08 30.33 132.279 30.156C132.479 29.982 132.611 29.7412 132.652 29.4769L134.709 16.2299C134.723 16.1336 134.717 16.0353 134.691 15.9417C134.664 15.848 134.619 15.7613 134.556 15.6874C134.494 15.6135 134.417 15.5543 134.33 15.5137C134.243 15.4731 134.148 15.4521 134.052 15.4522V15.4522ZM128.751 22.9851C128.386 25.1963 126.66 26.6807 124.46 26.6807C123.358 26.6807 122.473 26.3202 121.906 25.6371C121.344 24.9588 121.133 23.9932 121.31 22.9178C121.654 20.7255 123.406 19.1927 125.572 19.1927C126.652 19.1927 127.529 19.5579 128.108 20.2469C128.69 20.9429 128.92 21.9144 128.751 22.9851V22.9851ZM138.536 8.54449L135.276 29.6494C135.261 29.7454 135.267 29.8436 135.293 29.9371C135.319 30.0307 135.365 30.1174 135.427 30.1913C135.489 30.2652 135.566 30.3246 135.652 30.3653C135.739 30.406 135.834 30.427 135.929 30.427H139.206C139.751 30.427 140.213 30.0252 140.297 29.478L143.511 8.75367C143.526 8.65761 143.52 8.55939 143.494 8.46578C143.469 8.37217 143.423 8.28538 143.361 8.21137C143.299 8.13737 143.222 8.07791 143.135 8.03708C143.048 7.99626 142.954 7.97503 142.858 7.97485H139.189C139.031 7.97542 138.879 8.03306 138.759 8.13744C138.64 8.24181 138.561 8.38612 138.536 8.54449Z" fill="#179BD7"/>
<path d="M8.43823 34.4548L9.04558 30.5288L7.69268 30.4968H1.23242L5.72197 1.52694C5.73534 1.43842 5.77951 1.35774 5.84645 1.2996C5.91338 1.24146 5.99862 1.20974 6.08662 1.21021H16.9795C20.5958 1.21021 23.0914 1.97603 24.3944 3.48757C25.0052 4.19666 25.3942 4.93766 25.5824 5.75312C25.7798 6.60876 25.7833 7.63103 25.5905 8.87785L25.5766 8.96885V9.76776L26.1874 10.1199C26.6537 10.3604 27.0729 10.6856 27.4242 11.0796C27.9467 11.6858 28.2847 12.4564 28.4275 13.3699C28.575 14.3095 28.5262 15.4275 28.2847 16.6932C28.006 18.1492 27.5554 19.4173 26.9469 20.4549C26.41 21.3845 25.6881 22.1896 24.8275 22.8186C24.0193 23.4024 23.0589 23.8456 21.9731 24.1292C20.9209 24.4081 19.7213 24.5488 18.4056 24.5488H17.5578C16.9516 24.5488 16.3629 24.7709 15.9007 25.1692C15.4391 25.5717 15.133 26.1279 15.0367 26.7387L14.9728 27.092L13.8998 34.0116L13.851 34.2657C13.8382 34.346 13.8162 34.3862 13.7836 34.4134C13.7522 34.4396 13.7129 34.4542 13.6722 34.4548H8.43823Z" fill="#253B80"/>
<path d="M26.7655 9.06104C26.733 9.27258 26.6958 9.48885 26.654 9.71104C25.2175 17.2168 20.3029 19.8097 14.0261 19.8097H10.8302C10.0626 19.8097 9.41579 20.3769 9.29618 21.1475L7.65992 31.7082L7.19656 34.7018C7.17811 34.8205 7.18515 34.9419 7.21722 35.0576C7.24929 35.1733 7.30561 35.2806 7.38232 35.372C7.45903 35.4634 7.55429 35.5369 7.66155 35.5872C7.76882 35.6376 7.88553 35.6637 8.00366 35.6638H13.6719C14.3431 35.6638 14.9133 35.1674 15.019 34.4938L15.0748 34.2007L16.142 27.3083L16.2105 26.9301C16.315 26.2541 16.8864 25.7578 17.5576 25.7578H18.4053C23.8971 25.7578 28.1962 23.4887 29.4527 16.9225C29.9776 14.1795 29.7059 11.8891 28.317 10.2783C27.8767 9.78001 27.351 9.36751 26.7655 9.06104V9.06104Z" fill="#179BD7"/>
<path d="M25.2625 8.45117C24.8038 8.31614 24.3372 8.21075 23.8654 8.13563C22.9333 7.98984 21.9912 7.91989 21.0482 7.92645H12.5103C12.1854 7.92619 11.8711 8.04424 11.6243 8.25926C11.3774 8.47427 11.2143 8.77207 11.1644 9.09881L9.34816 20.8059L9.2959 21.1474C9.35248 20.7748 9.53827 20.435 9.81964 20.1896C10.101 19.9442 10.4594 19.8094 10.83 19.8096H14.0258C20.3026 19.8096 25.2172 17.2155 26.6537 9.71099C26.6967 9.48881 26.7327 9.27254 26.7652 9.06099C26.3861 8.8587 25.9911 8.6891 25.5842 8.55399C25.4775 8.51797 25.3702 8.48369 25.2625 8.45117V8.45117Z" fill="#222D65"/>
<path d="M11.1645 9.09882C11.214 8.77198 11.3771 8.47405 11.624 8.25914C11.871 8.04423 12.1855 7.92661 12.5105 7.92764H21.0483C22.0598 7.92764 23.0039 7.995 23.8656 8.13682C24.4487 8.23008 25.0237 8.36956 25.5854 8.554C26.0093 8.697 26.403 8.866 26.7665 9.061C27.1938 6.28727 26.763 4.39873 25.2893 2.68864C23.6647 0.806 20.7324 0 16.9803 0H6.08738C5.32093 0 4.66712 0.567273 4.54867 1.339L0.011508 30.6067C-0.00962529 30.7426 -0.00158477 30.8815 0.0350765 31.014C0.0717378 31.1464 0.13615 31.2691 0.223882 31.3738C0.311614 31.4785 0.420583 31.5626 0.543295 31.6203C0.666007 31.678 0.799548 31.708 0.934734 31.7082H7.65977L9.34828 20.8059L11.1645 9.09882V9.09882Z" fill="#253B80"/>
</svg>
