<svg width="174" height="46" viewBox="0 0 174 46" fill="none" xmlns="http://www.w3.org/2000/svg">
<g clip-path="url(#clip0)">
<path fill-rule="evenodd" clip-rule="evenodd" d="M13.7763 37.9451L2.19629 37.9321L2.20929 26.3521L13.7893 26.3651L13.7763 37.9451Z" fill="black"/>
<path fill-rule="evenodd" clip-rule="evenodd" d="M41.7757 38.4181H36.5977V20.3781H55.2257V38.4181H50.0507V23.8801H41.7757V38.4181ZM57.7337 24.9751V42.8371H62.4997V36.725C64.0967 38.432 66.6997 38.5621 67.3297 38.5621C71.8757 38.5621 74.6647 35.7051 74.6647 31.5461C74.6647 27.2191 71.9067 24.4851 67.4217 24.4851C66.2937 24.4851 64.0967 24.6651 62.2827 26.5451H62.1837L62.2187 24.9751H57.7337V24.9751ZM62.2837 31.4981C62.2837 27.8381 64.5687 27.1211 66.0087 27.1211C67.4217 27.1211 69.7107 27.8381 69.7107 31.4981C69.7107 33.7651 68.7417 35.9321 66.0087 35.9321C63.2197 35.9321 62.2827 33.7651 62.2827 31.4981H62.2837ZM86.4867 36.4981C84.7307 38.1261 83.0357 38.5621 81.1567 38.5621C76.0157 38.5621 75.8227 34.7471 75.8227 33.1761V24.9751H80.5907V32.5571C80.5907 35.1581 81.5037 35.9331 83.2577 35.9331C86.2697 35.9331 86.4867 33.2751 86.4867 32.3201V24.9751H91.2487V38.0691H86.4867V36.4981ZM98.0847 32.5571H101.002C103.259 32.5571 103.732 33.2211 103.732 34.0991C103.732 34.6691 103.418 35.4391 101.066 35.4391H98.0857V32.5571H98.0847ZM93.3227 24.9751V38.0701H102.788C106.24 38.0701 108.622 37.4001 108.622 34.7271C108.622 32.6591 107.46 31.7551 104.826 31.2941V31.2151C106.549 30.9851 108.056 29.9221 108.056 28.1461C108.056 24.9761 104.292 24.9761 102.822 24.9761H93.3227V24.9751ZM98.0847 27.6051H100.656C102.008 27.6051 103.165 27.8101 103.165 28.8941C103.165 30.0791 101.348 30.1071 100.565 30.1071H98.0847V27.6041V27.6051ZM114.645 29.2041C114.645 27.2701 116.707 27.1211 117.557 27.1211C118.092 27.1211 120.069 27.1461 120.127 28.8471V29.2041C120.035 30.4961 118.782 30.2311 115.269 30.6741C112.381 31.0591 109.346 31.7831 109.346 34.7721C109.346 35.8561 109.812 38.5621 114.893 38.5621C116.838 38.5621 118.968 38.0701 120.223 36.7791H120.318L120.724 38.0691H125.737V37.8421C124.831 37.6581 124.773 36.7791 124.802 35.3671L124.896 29.3841C124.926 27.8641 124.773 24.4851 117.587 24.4851C115.867 24.4851 110.315 24.6401 110.096 29.2041H114.645V29.2041ZM120.162 32.6581C120.162 35.2881 117.842 35.9331 116.676 35.9331C115.806 35.9331 114.235 35.6481 114.235 34.4091C114.235 32.9401 116.021 32.6591 117.026 32.5321C118.875 32.2701 118.72 32.3451 120.162 31.8311V32.6581V32.6581ZM125.428 27.6041V24.9741H140.73V27.6041H135.464V38.0701H130.694V27.6041H125.428Z" fill="#74B027"/>
<path fill-rule="evenodd" clip-rule="evenodd" d="M2 38.12H13.941V26.34H2V38.12Z" fill="#363636"/>
<path fill-rule="evenodd" clip-rule="evenodd" d="M26.219 14.226V31.894H23.789C22.735 23.158 17.17 17.67 8.312 16.629V14.226H26.22H26.219ZM2 8V22.656H5.157C13.462 22.656 17.677 26.811 17.677 35.006V38.119H32.533V8H2Z" fill="#74B027"/>
<path d="M155.658 34.5591V38H142.672C142.813 36.6992 143.235 35.4688 143.938 34.3086C144.641 33.1396 146.03 31.5928 148.104 29.668C149.774 28.1123 150.798 27.0576 151.176 26.5039C151.686 25.7393 151.94 24.9834 151.94 24.2363C151.94 23.4102 151.716 22.7773 151.268 22.3379C150.829 21.8896 150.218 21.6655 149.436 21.6655C148.662 21.6655 148.047 21.8984 147.59 22.3643C147.133 22.8301 146.869 23.6035 146.799 24.6846L143.107 24.3154C143.327 22.2764 144.017 20.813 145.177 19.9253C146.337 19.0376 147.788 18.5938 149.528 18.5938C151.435 18.5938 152.934 19.1079 154.023 20.1362C155.113 21.1646 155.658 22.4434 155.658 23.9727C155.658 24.8428 155.5 25.6733 155.184 26.4644C154.876 27.2466 154.384 28.0684 153.707 28.9297C153.259 29.501 152.45 30.3228 151.281 31.395C150.112 32.4673 149.37 33.1792 149.053 33.5308C148.746 33.8823 148.495 34.2251 148.302 34.5591H155.658ZM165.44 38V34.1108H157.53V30.8677L165.915 18.5938H169.026V30.8545H171.426V34.1108H169.026V38H165.44ZM165.44 30.8545V24.2495L160.998 30.8545H165.44Z" fill="#363636"/>
</g>
<defs>
<clipPath id="clip0">
<rect width="174" height="46" fill="white"/>
</clipPath>
</defs>
</svg>
