<svg width="122" height="55" viewBox="0 0 122 55" fill="none" xmlns="http://www.w3.org/2000/svg">
<g clip-path="url(#clip0)">
<path d="M114.491 33.9098H116.361V36.7898H117.281L119.111 33.9098H121.201L118.801 37.4998V37.5298L121.491 41.4498H119.321L117.341 38.3898H116.361V41.4498H114.491V33.9098ZM111.031 36.7498C111.011 35.7398 110.361 35.1498 109.521 35.1498C108.561 35.1498 107.881 35.7898 107.701 36.7498H111.031ZM109.561 33.7298C111.721 33.7298 112.911 35.3098 112.911 37.3098C112.911 37.5398 112.881 37.7998 112.851 38.0298H107.661C107.781 39.3498 108.781 40.0298 109.921 40.0298C110.691 40.0298 111.471 39.6898 112.081 39.1998L112.821 40.5498C112.051 41.2198 110.871 41.6198 109.791 41.6198C107.291 41.6198 105.721 39.8198 105.721 37.6798C105.721 35.3598 107.301 33.7298 109.561 33.7298ZM97.1213 39.8698C98.0513 39.7298 98.7013 38.9498 98.7013 36.2698V33.9098H104.201V41.4498H102.321V35.4298H100.491V36.2698C100.491 39.5498 99.6113 41.4498 97.1213 41.5198V39.8698ZM94.3514 36.7498C94.3414 35.7398 93.6814 35.1498 92.8414 35.1498C91.8814 35.1498 91.2014 35.7898 91.0214 36.7498H94.3514ZM92.8914 33.7298C95.0414 33.7298 96.2313 35.3098 96.2313 37.3098C96.2313 37.5398 96.2014 37.7998 96.1713 38.0298H90.9814C91.1014 39.3498 92.1014 40.0298 93.2414 40.0298C94.0114 40.0298 94.7914 39.6898 95.4014 39.1998L96.1413 40.5498C95.3714 41.2198 94.1914 41.6198 93.1114 41.6198C90.6114 41.6198 89.0414 39.8198 89.0414 37.6798C89.0414 35.3598 90.6214 33.7298 92.8914 33.7298ZM77.4414 33.9098H79.2314V39.8498H81.5814V33.9098H83.3614V39.8498H85.7214V33.9098H87.5014V41.4498H77.4414V33.9098ZM71.7914 40.0298C73.0214 40.0298 74.0414 39.0798 74.0414 37.6798C74.0414 36.2898 73.0214 35.3298 71.7914 35.3298C70.5714 35.3298 69.5614 36.2898 69.5614 37.6798C69.5614 39.0798 70.5714 40.0298 71.7914 40.0298ZM71.7814 33.7298C74.0814 33.7298 75.9314 35.3698 75.9314 37.6798C75.9314 39.9998 74.0814 41.6198 71.7914 41.6198C69.5014 41.6198 67.6515 39.9998 67.6515 37.6798C67.6515 35.3698 69.5014 33.7298 71.7814 33.7298ZM59.5215 30.9498H61.4315V35.2198H62.7915L65.2615 30.9498H67.3315L64.3615 35.9498V35.9798L67.5015 41.4498H65.3515L62.7915 36.8598H61.4315V41.4498H59.5215V30.9498Z" fill="#3D4048"/>
<path d="M24.2819 48.5598C10.8719 48.5598 0.00195312 37.6899 0.00195312 24.2799C0.00195312 10.87 10.8719 0 24.2819 0C37.6918 0 48.5618 10.87 48.5618 24.2799C48.5618 28.8399 47.3118 33.0999 45.1218 36.7399C45.0518 36.8599 44.8718 36.8199 44.8518 36.6899C44.0218 30.7199 40.3818 27.4299 35.0718 26.4699C34.6118 26.3899 34.5218 26.0999 35.1318 26.0499C36.7518 25.9099 39.0618 25.9399 40.2318 26.1499C40.3018 25.5399 40.3318 24.9099 40.3318 24.2799C40.3318 15.4199 33.1518 8.22997 24.2819 8.22997C15.4219 8.22997 8.23192 15.4199 8.23192 24.2799C8.23192 33.1499 15.4219 40.3299 24.2819 40.3299C24.5319 40.3299 24.7919 40.3399 25.0319 40.3199C24.7719 38.7599 24.6819 37.1799 24.7319 35.9799C24.7719 34.9999 24.9719 34.8699 25.4119 35.6299C27.6319 39.4599 30.8218 42.9498 37.0218 44.3098C42.0818 45.4298 47.1618 46.7498 52.6618 53.6798C53.1418 54.2998 52.4018 54.9098 51.8418 54.4198C46.2518 49.4698 41.2018 47.8698 36.5518 47.8698C31.3718 47.8698 27.8419 48.5598 24.2819 48.5598ZM36.6118 38.3499C36.1218 38.3499 35.7118 38.5199 35.4618 38.8299C34.8218 39.6199 35.1118 41.0199 36.0918 41.8698C36.5218 42.2498 37.1418 42.4698 37.7418 42.4698C38.3618 42.4698 38.8718 42.2398 39.1918 41.8198C39.7618 41.0499 39.4418 39.9699 38.3618 39.0599C37.8218 38.5999 37.2018 38.3499 36.6118 38.3499ZM41.9918 34.3799C41.5318 34.1999 41.1618 34.3399 40.9818 34.6699C40.7118 35.1499 40.9118 36.1199 41.4518 36.9599C41.9918 37.8099 42.4618 38.2399 42.8218 38.2399C43.1618 38.2399 43.5018 37.7999 43.3418 36.7399C43.2418 36.0999 42.8918 34.7199 41.9918 34.3799ZM70.3017 21.7699L68.3417 19.4199C68.1417 19.1699 68.3117 18.7999 68.6317 18.7999H72.7217C72.9217 18.2199 73.0317 17.5999 73.0317 16.9499C73.0317 14.0099 70.8317 11.47 67.8317 11.47C64.8217 11.47 62.6317 14.0099 62.6317 16.9499C62.6317 19.8999 64.8217 22.3999 67.8317 22.3999C68.7417 22.3999 69.5717 22.1699 70.3017 21.7699ZM79.1417 25.7399C79.3517 25.9699 79.1817 26.3499 78.8617 26.3499H74.3917C74.2117 26.3499 74.0417 26.2699 73.9217 26.1299L73.1717 25.2199C71.6317 26.2199 69.7917 26.7999 67.8317 26.7999C62.3917 26.7999 57.9817 22.3799 57.9817 16.9499C57.9817 11.52 62.3917 7.09997 67.8317 7.09997C73.2617 7.09997 77.6817 11.52 77.6817 16.9499C77.6817 18.9099 77.1017 20.7399 76.1117 22.2699L79.1417 25.7399ZM120.362 7.55997H116.712C116.452 7.55997 116.232 7.76997 116.232 8.03997V25.8699C116.232 26.1299 116.452 26.3499 116.712 26.3499H120.362C120.622 26.3499 120.842 26.1299 120.842 25.8699V8.03997C120.842 7.76997 120.622 7.55997 120.362 7.55997ZM114.232 7.55997H110.152C109.942 7.55997 109.752 7.68997 109.692 7.89997L106.472 18.4299L102.922 7.88997C102.862 7.68997 102.672 7.55997 102.462 7.55997H99.6216C99.4116 7.55997 99.2316 7.68997 99.1616 7.88997L95.6216 18.4299L92.3916 7.89997C92.3316 7.68997 92.1416 7.55997 91.9316 7.55997H87.8616C87.7016 7.55997 87.5616 7.62997 87.4616 7.75997C87.3716 7.87997 87.3516 8.03997 87.4016 8.18997L93.3816 26.0199C93.4516 26.2199 93.6316 26.3499 93.8416 26.3499H97.0716C97.2816 26.3499 97.4716 26.2199 97.5316 26.0199L101.042 15.5999L104.552 26.0199C104.622 26.2199 104.802 26.3499 105.012 26.3499H108.242C108.452 26.3499 108.642 26.2199 108.702 26.0199L114.692 8.18997C114.742 8.03997 114.712 7.87997 114.622 7.75997C114.532 7.62997 114.382 7.55997 114.232 7.55997ZM85.8616 8.03997V25.8699C85.8616 26.1299 85.6416 26.3499 85.3716 26.3499H81.7317C81.4617 26.3499 81.2517 26.1299 81.2517 25.8699V8.03997C81.2517 7.76997 81.4617 7.55997 81.7317 7.55997H85.3716C85.6416 7.55997 85.8616 7.76997 85.8616 8.03997Z" fill="#F18B17"/>
</g>
<defs>
<clipPath id="clip0">
<rect width="121.493" height="54.5998" fill="white"/>
</clipPath>
</defs>
</svg>
