<?xml version="1.0" encoding="UTF-8"?>
<!DOCTYPE svg PUBLIC "-//W3C//DTD SVG 1.1//EN" "http://www.w3.org/Graphics/SVG/1.1/DTD/svg11.dtd">
<!-- Creator: CorelDRAW X8 -->
<svg xmlns="http://www.w3.org/2000/svg" xml:space="preserve" width="1726px" height="557px" version="1.1" style="shape-rendering:geometricPrecision; text-rendering:geometricPrecision; image-rendering:optimizeQuality; fill-rule:evenodd; clip-rule:evenodd"
viewBox="0 0 1812 585"
 xmlns:xlink="http://www.w3.org/1999/xlink">
 <defs>
  <style type="text/css">
   <![CDATA[
    .fil1 {fill:#222965}
    .fil3 {fill:#233275}
    .fil2 {fill:#233B86}
    .fil0 {fill:#24449B}
   ]]>
  </style>
 </defs>
 <g id="Слой_x0020_1">
  <metadata id="CorelCorpID_0Corel-Layer"/>
  <g id="_869885504">
   <path class="fil0" d="M1590 166l38 182c1,6 4,20 5,27l-119 0 37 -105c7,-17 13,-35 19,-52l14 -39c1,-3 2,-4 3,-7l3 -6zm-304 410l154 0c3,-5 5,-13 8,-20 3,-9 21,-57 22,-63l188 0c0,8 16,75 18,83l136 0c-2,-4 -6,-27 -8,-35 -16,-68 -28,-144 -44,-212l-15 -72c-3,-11 -5,-23 -8,-35l-37 -179c-2,-10 -4,-33 -10,-33l-105 0c-18,0 -34,2 -47,7 -31,15 -38,50 -52,83l-200 476z"/>
   <path class="fil1" d="M0 27l82 23c19,6 59,22 73,32 21,16 25,44 32,73 7,29 15,56 22,85 24,97 52,196 76,293 2,10 10,36 10,43l154 0c4,0 14,-27 16,-33l105 -250c10,-24 20,-46 30,-71 24,-56 53,-124 75,-179 3,-7 5,-11 8,-18 1,-4 2,-5 4,-9 1,-3 3,-6 -3,-6l-146 0c-6,0 -9,12 -12,21 -11,32 -34,86 -47,120l-86 217c-4,8 -8,18 -10,25 -2,-3 -3,-9 -4,-18l-27 -141c-5,-27 -10,-53 -15,-80 -5,-27 -10,-53 -15,-80 -12,-73 -72,-64 -126,-64 -64,0 -128,0 -192,0 -1,5 -2,13 -4,17z"/>
   <path class="fil2" d="M937 179c0,40 4,59 29,91 16,21 42,40 64,53l25 13c6,3 11,6 17,9 23,11 68,35 68,62 0,22 -8,36 -26,45 -32,16 -48,14 -83,14 -25,0 -50,-6 -70,-12 -10,-3 -19,-6 -29,-10 -6,-3 -23,-12 -29,-12l-27 123c66,32 193,40 271,16 25,-8 52,-20 73,-35 40,-30 65,-67 72,-117 4,-25 4,-47 -4,-71 -26,-75 -103,-100 -162,-135 -14,-9 -37,-25 -37,-44 0,-40 55,-50 90,-50 40,0 90,13 116,27 3,-7 24,-114 27,-121 -18,-4 -33,-11 -63,-17 -59,-12 -112,-10 -169,4 -35,9 -62,24 -88,44 -35,26 -65,78 -65,123z"/>
   <path class="fil3" d="M629 576l148 0 30 -141c18,-93 43,-193 61,-286l26 -124c2,-6 6,-15 -1,-15l-139 0c-5,0 -4,4 -7,15l-26 124c-9,47 -21,95 -31,142 -13,70 -31,144 -45,214 -3,12 -5,23 -8,35 -1,7 -2,12 -4,18 -1,5 -2,15 -4,18z"/>
  </g>
 </g>
</svg>
