<svg width="183" height="44" viewBox="0 0 183 44" fill="none" xmlns="http://www.w3.org/2000/svg">
<path fill-rule="evenodd" clip-rule="evenodd" d="M161.693 0.0203857C164.961 0.0203857 168.098 0.805369 170.974 2.11367C171.366 2.37534 171.889 2.637 172.281 2.76783L170.32 4.59946L167.445 1.59035L162.477 5.90776L159.471 2.76783L150.19 11.0102L156.203 17.4209L153.85 19.5141L159.732 25.9248L157.38 27.8873L165.745 37.1763L170.712 32.5972L174.895 37.4379C174.111 38.0921 173.196 38.7462 172.15 39.2696C169.013 40.9704 165.484 42.017 161.693 42.017C149.929 42.017 140.387 32.5972 140.387 20.9533C140.387 9.44019 149.929 0.0203857 161.693 0.0203857ZM157.772 19.7758L162.87 15.1967L167.314 20.2991L162.347 24.7474L157.772 19.7758ZM161.432 28.4106L166.399 23.8315L170.974 28.8031L165.876 33.3822L161.432 28.4106ZM154.112 11.141L159.21 6.69274L163.785 11.6643L158.687 16.2434L154.112 11.141ZM163.392 8.78603L167.183 5.38444L170.582 9.17853L166.791 12.5801L163.392 8.78603ZM170.19 24.224L173.98 20.8224L177.379 24.6165L173.588 28.0181L170.19 24.224ZM173.457 31.8122L177.248 28.4106L180.647 32.2047L176.856 35.6063L173.457 31.8122ZM175.026 14.4117L177.51 12.1876L179.862 14.6734L177.248 16.8975L175.026 14.4117ZM171.758 7.08524L174.242 4.73029L176.595 7.3469L174.111 9.57102L171.758 7.08524ZM178.294 21.8691L180.777 19.645L183 22.1308L180.516 24.3549L178.294 21.8691ZM166.922 16.3742L170.712 12.9726L174.111 16.6359L170.32 20.0375L166.922 16.3742Z" fill="#036CB5"/>
<path fill-rule="evenodd" clip-rule="evenodd" d="M11.1107 14.5426H10.98L7.32 28.1489H4.44429L0 8.78601H3.00643L6.14357 23.1774H6.27429L9.80357 8.78601H12.2871L16.0779 23.1774H16.2086L18.9536 8.78601H22.2214L17.7771 28.1489H14.7707L11.1107 14.5426Z" fill="#036CB5"/>
<path fill-rule="evenodd" clip-rule="evenodd" d="M26.0115 19.9067H32.2857C32.155 17.0284 30.7172 15.8509 29.2793 15.8509C27.58 15.8509 26.2729 17.1592 26.0115 19.9067ZM34.3772 25.0091V27.1023C33.2007 27.7565 31.6322 28.4106 29.6715 28.4106C25.0965 28.4106 23.1357 25.5324 23.1357 21.215C23.1357 17.0284 25.2272 14.0193 29.2793 14.0193C32.6779 14.0193 34.9 16.2434 34.9 20.6916V21.7383H26.0115C26.0115 25.0091 27.3186 26.4482 30.0636 26.4482C31.6322 26.4482 32.9393 25.9249 34.3772 25.0091Z" fill="#036CB5"/>
<path fill-rule="evenodd" clip-rule="evenodd" d="M41.1745 26.1865C42.0895 26.579 43.0045 26.579 43.6581 26.579C45.6188 26.579 47.1874 25.4015 47.1874 20.9533C47.1874 17.4209 46.011 16.3742 44.181 16.3742C43.0045 16.3742 42.2203 16.6359 41.1745 17.29V26.1865ZM41.1745 15.1968C41.9588 14.8043 43.3967 14.1501 44.8345 14.1501C48.2331 14.1501 50.0631 16.5051 50.0631 20.9533C50.0631 26.0557 47.5795 28.5415 43.6581 28.5415C42.2203 28.5415 39.9981 28.0181 38.2988 27.2332V8.13191L41.1745 7.34692V15.1968Z" fill="#036CB5"/>
<path fill-rule="evenodd" clip-rule="evenodd" d="M62.3509 23.9624H62.4816L68.233 8.78601H71.6316V28.1489H68.6252V14.0192H68.4945L62.8737 28.1489H61.1745L55.5537 14.4117H55.423V28.1489H52.9395V8.78601H56.2073L62.3509 23.9624Z" fill="#036CB5"/>
<path fill-rule="evenodd" clip-rule="evenodd" d="M83.6574 21.215C83.6574 17.5517 82.0888 15.9817 80.2588 15.9817C78.4288 15.9817 76.9909 17.5517 76.9909 21.215C76.9909 25.0091 78.2981 26.4482 80.2588 26.4482C82.2195 26.4482 83.6574 25.0091 83.6574 21.215ZM74.1152 21.215C74.1152 16.3742 76.7295 14.0193 80.2588 14.0193C83.9188 14.0193 86.5331 16.3742 86.5331 21.215C86.5331 25.9249 84.0495 28.4106 80.2588 28.4106C76.5988 28.4106 74.1152 25.9249 74.1152 21.215Z" fill="#036CB5"/>
<path fill-rule="evenodd" clip-rule="evenodd" d="M88.624 16.1126C89.8005 15.3276 92.4147 14.0193 95.5519 14.0193C98.8197 14.0193 99.9962 15.3276 99.9962 18.075V28.0182H97.2512V18.7292C97.2512 16.6359 96.2055 16.2434 94.7676 16.2434C93.7219 16.2434 92.284 16.7667 91.4997 17.1592V28.0182H88.624V16.1126Z" fill="#036CB5"/>
<path fill-rule="evenodd" clip-rule="evenodd" d="M106.01 19.9067H112.284C112.153 17.0284 110.715 15.8509 109.277 15.8509C107.578 15.8509 106.271 17.1592 106.01 19.9067ZM114.375 25.0091V27.1023C113.199 27.7565 111.63 28.4106 109.67 28.4106C105.095 28.4106 103.134 25.5324 103.134 21.215C103.134 17.0284 105.225 14.0193 109.408 14.0193C112.807 14.0193 114.898 16.2434 114.898 20.6916V21.7383H106.01C106.01 25.0091 107.317 26.4482 110.062 26.4482C111.63 26.4482 112.937 25.9249 114.375 25.0091Z" fill="#036CB5"/>
<path fill-rule="evenodd" clip-rule="evenodd" d="M126.14 14.0193H129.015L124.179 27.7565C122.741 31.4197 121.173 33.513 118.035 33.513V31.1581C119.865 31.1581 120.911 29.719 121.565 27.7565L116.467 14.0193H119.343L122.872 24.0932H123.003L126.14 14.0193Z" fill="#036CB5"/>
<path fill-rule="evenodd" clip-rule="evenodd" d="M29.4108 40.7086V39.5311C30.3258 40.0545 31.3716 40.3161 32.2866 40.3161C33.0708 40.3161 33.5937 40.1853 33.9858 39.9236C34.378 39.662 34.6394 39.2695 34.6394 38.7462C34.6394 38.3537 34.378 37.9612 34.1166 37.6995C33.7244 37.4379 33.2016 37.1762 32.2866 36.7837C31.8944 36.6529 31.7637 36.6529 31.633 36.6529C31.5023 36.522 31.3716 36.522 31.1101 36.3912C30.8487 36.2604 30.718 36.1295 30.5873 36.1295C30.4566 36.1295 30.3258 35.9987 30.1951 35.8679C29.9337 35.7371 29.803 35.7371 29.803 35.6062C29.6723 35.4754 29.6723 35.3446 29.5416 35.2137C29.4108 35.0829 29.2801 34.9521 29.2801 34.8212C29.2801 34.6904 29.1494 34.5596 29.1494 34.4288C29.1494 34.1671 29.1494 34.0363 29.1494 33.7746C29.1494 33.1204 29.4108 32.4663 29.9337 31.943C30.5873 31.4196 31.3716 31.2888 32.2866 31.2888C33.2016 31.2888 34.1166 31.4196 35.0316 31.6813V32.9896C34.1166 32.5971 33.3323 32.3355 32.4173 32.3355C31.7637 32.3355 31.3716 32.4663 31.1101 32.728C30.718 32.9896 30.5873 33.3821 30.5873 33.7746C30.5873 34.1671 30.718 34.5596 31.1101 34.8212C31.3716 34.9521 31.8944 35.2137 32.6787 35.6062C33.9858 35.9987 34.9008 36.522 35.4237 36.9145C35.8158 37.307 36.0773 37.8303 36.0773 38.6153C36.0773 39.4003 35.8158 40.0545 35.1623 40.5778C34.378 41.1011 33.463 41.3628 32.2866 41.3628C31.2408 41.3628 30.1951 41.2319 29.4108 40.7086ZM43.1358 41.2319H41.8287L41.698 40.447C40.9137 41.1011 40.1294 41.3628 39.4758 41.3628C38.8223 41.3628 38.2994 41.2319 37.9073 40.8394C37.5151 40.447 37.3844 40.0545 37.3844 39.5311C37.3844 39.2695 37.3844 38.877 37.5151 38.6153C37.6458 38.3537 37.7766 38.2228 38.038 37.9612C38.2994 37.6995 38.6916 37.4379 39.0837 37.307C39.6066 37.1762 40.1294 37.0454 40.9137 37.0454H41.698V36.7837C41.698 36.1295 41.5673 35.7371 41.3058 35.4754C41.1751 35.2137 40.783 35.0829 40.2601 35.0829C39.6066 35.0829 38.8223 35.3446 37.7766 35.9987V34.8212C38.8223 34.4288 39.7373 34.1671 40.6523 34.1671C41.5673 34.1671 42.2208 34.2979 42.613 34.6904C43.0051 35.0829 43.1358 35.7371 43.1358 36.3912V41.2319ZM41.698 38.092H41.0444C39.4758 38.092 38.8223 38.4845 38.8223 39.4003C38.8223 39.662 38.8223 39.9236 39.0837 40.0545C39.2144 40.1853 39.4758 40.3161 39.868 40.3161C40.2601 40.3161 40.5216 40.1853 40.9137 40.0545C41.3058 39.7928 41.5673 39.662 41.698 39.4003V38.092ZM45.358 43.9794V35.2137C45.7501 34.8212 46.1423 34.6904 46.6651 34.4288C47.3187 34.2979 47.8416 34.1671 48.3644 34.1671C50.1944 34.1671 51.1094 35.3446 51.1094 37.5687C51.1094 38.7462 50.848 39.662 50.4558 40.3161C49.933 40.9703 49.1487 41.2319 48.2337 41.2319C47.7108 41.2319 47.188 41.1011 46.6651 40.8394V43.9794H45.358ZM46.6651 35.6062V39.7928C46.9266 39.9236 47.0573 40.0545 47.4494 40.1853C47.7108 40.3161 47.8416 40.3161 48.103 40.3161C48.6258 40.3161 49.018 40.1853 49.2794 39.7928C49.5408 39.4003 49.6716 38.6153 49.6716 37.5687C49.6716 36.7837 49.5408 36.1295 49.2794 35.7371C49.018 35.3446 48.6258 35.2137 48.103 35.2137C47.5801 35.2137 47.0573 35.3446 46.6651 35.6062ZM54.3773 34.2979V41.2319H52.9394V34.5596L54.3773 34.2979ZM52.678 32.2046C52.678 31.943 52.8087 31.8121 52.9394 31.5505C53.2008 31.4196 53.4623 31.2888 53.593 31.2888C53.8544 31.2888 54.1158 31.4196 54.2466 31.5505C54.508 31.8121 54.508 31.943 54.508 32.2046C54.508 32.4663 54.508 32.728 54.2466 32.8588C54.1158 33.1204 53.8544 33.1204 53.593 33.1204C53.4623 33.1204 53.2008 33.1204 52.9394 32.8588C52.8087 32.728 52.678 32.4663 52.678 32.2046ZM59.6058 40.447C60.2594 40.447 60.913 40.1853 61.6973 39.662V40.7086C61.0437 41.1011 60.2594 41.3628 59.3444 41.3628C58.2987 41.3628 57.5144 41.1011 56.9916 40.447C56.4687 39.7928 56.2073 38.877 56.2073 37.8303C56.2073 36.6529 56.4687 35.8679 56.9916 35.2137C57.5144 34.5596 58.2987 34.1671 59.2137 34.1671C60.1287 34.1671 60.7823 34.4288 61.3051 35.0829C61.6973 35.6062 61.9587 36.3912 61.9587 37.5687V38.092H57.5144C57.5144 38.877 57.7758 39.4003 58.0373 39.7928C58.4294 40.1853 58.9523 40.447 59.6058 40.447ZM59.2137 35.0829C58.8216 35.0829 58.4294 35.2137 58.168 35.6062C57.7758 35.9987 57.6451 36.3912 57.5144 37.0454H60.6516C60.6516 36.3912 60.5208 35.8679 60.2594 35.6062C59.8673 35.2137 59.6058 35.0829 59.2137 35.0829ZM63.7887 41.2319V35.2137C64.8344 34.5596 66.0108 34.1671 67.1873 34.1671C67.9716 34.1671 68.6251 34.2979 68.8866 34.6904C69.2787 34.9521 69.4094 35.4754 69.4094 36.2604V41.2319H67.9716V36.522C67.9716 35.9987 67.9716 35.7371 67.7101 35.4754C67.4487 35.3446 67.1873 35.2137 66.7951 35.2137C66.2723 35.2137 65.7494 35.4754 65.0958 35.7371V41.2319H63.7887ZM72.9387 34.5596H75.0301L74.7687 35.4754H72.9387V39.0078C72.9387 39.9236 73.3308 40.447 74.1151 40.447C74.3766 40.447 74.7687 40.3161 75.0301 40.1853V41.1011C74.638 41.2319 74.1151 41.3628 73.4616 41.3628C72.808 41.3628 72.2851 41.2319 72.0237 40.8394C71.7623 40.447 71.5008 39.9236 71.5008 39.2695V33.6438L72.9387 32.5971V34.5596ZM77.7751 34.2979V41.2319H76.468V34.5596L77.7751 34.2979ZM76.2066 32.2046C76.2066 31.943 76.3373 31.8121 76.468 31.5505C76.7294 31.4196 76.8601 31.2888 77.1216 31.2888C77.383 31.2888 77.6444 31.4196 77.7751 31.5505C77.9058 31.8121 78.0366 31.943 78.0366 32.2046C78.0366 32.4663 77.9058 32.728 77.7751 32.8588C77.6444 33.1204 77.383 33.1204 77.1216 33.1204C76.8601 33.1204 76.7294 33.1204 76.468 32.8588C76.3373 32.728 76.2066 32.4663 76.2066 32.2046ZM87.448 34.6904V35.8679C86.6637 35.3446 86.0101 35.0829 85.3566 35.0829C84.9644 35.0829 84.703 35.2137 84.4416 35.3446C84.3108 35.4754 84.1801 35.7371 84.1801 35.9987C84.1801 36.2604 84.3108 36.522 84.5723 36.6529C84.703 36.7837 85.0951 37.0454 85.7487 37.1762C86.0101 37.307 86.1408 37.307 86.4023 37.4379C86.533 37.4379 86.6637 37.5687 86.9251 37.6995C87.1866 37.8303 87.3173 37.9612 87.448 38.092C87.5787 38.2228 87.7094 38.3537 87.8401 38.6153C87.9708 38.7462 87.9708 39.0078 87.9708 39.2695C87.9708 39.9236 87.7094 40.447 87.1866 40.8394C86.6637 41.2319 86.0101 41.3628 85.2258 41.3628C84.3108 41.3628 83.5266 41.1011 82.873 40.7086V39.662C83.6573 40.1853 84.4416 40.447 85.0951 40.447C86.0101 40.447 86.533 40.0545 86.533 39.4003C86.533 39.2695 86.533 39.1386 86.4023 39.0078C86.4023 39.0078 86.2716 38.877 86.2716 38.7462C86.1408 38.7462 86.0101 38.6153 85.8794 38.6153C85.7487 38.4845 85.618 38.3537 85.4873 38.3537C85.3566 38.3537 85.0951 38.2228 84.8337 38.2228C84.5723 38.092 84.1801 37.9612 84.0494 37.8303C83.788 37.6995 83.5266 37.5687 83.3958 37.4379C83.1344 37.307 83.0037 37.0454 82.873 36.7837C82.7423 36.6529 82.7423 36.3912 82.7423 36.1295C82.7423 35.7371 82.873 35.3446 83.0037 35.0829C83.1344 34.8212 83.3958 34.5596 83.6573 34.4288C84.0494 34.4288 84.3108 34.2979 84.4416 34.2979C84.703 34.1671 84.9644 34.1671 85.2258 34.1671C86.0101 34.1671 86.6637 34.2979 87.448 34.6904ZM94.8987 41.2319H93.5916L93.4608 40.447C92.6766 41.1011 91.8923 41.3628 91.108 41.3628C90.4544 41.3628 90.0623 41.2319 89.6701 40.8394C89.278 40.447 89.1473 40.0545 89.1473 39.5311C89.1473 39.2695 89.1473 38.877 89.278 38.6153C89.4087 38.3537 89.5394 38.2228 89.8008 37.9612C90.0623 37.6995 90.4544 37.4379 90.8466 37.307C91.3694 37.1762 91.8923 37.0454 92.5458 37.0454H93.4608V36.7837C93.4608 36.1295 93.3301 35.7371 93.0687 35.4754C92.938 35.2137 92.5458 35.0829 92.023 35.0829C91.3694 35.0829 90.5851 35.3446 89.5394 35.9987V34.8212C90.5851 34.4288 91.5001 34.1671 92.4151 34.1671C93.3301 34.1671 93.9837 34.2979 94.3758 34.6904C94.6373 35.0829 94.8987 35.7371 94.8987 36.3912V41.2319ZM93.4608 38.092H92.8073C91.2387 38.092 90.5851 38.4845 90.5851 39.4003C90.5851 39.662 90.5851 39.9236 90.8466 40.0545C90.9773 40.1853 91.2387 40.3161 91.6308 40.3161C91.8923 40.3161 92.2844 40.1853 92.6766 40.0545C93.0687 39.7928 93.3301 39.662 93.4608 39.4003V38.092ZM98.428 34.5596H100.519L100.258 35.4754H98.428V39.0078C98.428 39.9236 98.8201 40.447 99.6044 40.447C99.8658 40.447 100.127 40.3161 100.519 40.1853V41.1011C99.9966 41.2319 99.4737 41.3628 98.9508 41.3628C98.2973 41.3628 97.7744 41.2319 97.513 40.8394C97.1208 40.447 96.9901 39.9236 96.9901 39.2695V33.6438L98.428 32.5971V34.5596Z" fill="#B6B6B6"/>
</svg>
