<svg width="195" height="38" viewBox="0 0 195 38" fill="none" xmlns="http://www.w3.org/2000/svg">
<path d="M9.39175 20.0937L3.96175 32.5778H0L5.96491 19.2274C3.16007 17.7694 1.29064 15.1271 1.29064 10.2518C1.29064 3.41728 5.51915 0 10.5493 0H15.668V32.5778H12.2405V20.0937H9.39175ZM12.2405 2.96169H10.4156C7.65604 2.96169 4.98562 4.82968 4.98562 10.2518C4.98562 15.4915 7.43316 17.1776 10.4156 17.1776H12.2405V2.96169Z" fill="#FF0000"/>
<path d="M32.1869 9.61375V32.5779H28.7594V22.2811H23.5961V32.5779H20.124V9.61375H23.5961V19.3637H28.7594V9.61375H32.1869ZM50.0357 37.0888H46.9202V32.5779H37.3055V37.0888H34.19V29.6618H35.5698C37.6169 24.7858 37.8398 17.6789 37.8398 11.573V9.61375H48.2554V29.6618H50.0357V37.0888V37.0888ZM44.8279 12.4842H40.9553V12.8948C40.9553 17.7245 40.7331 24.7858 38.8636 29.6618H44.8279V12.4842V12.4842ZM59.6057 32.8966C54.9767 32.8966 52.128 29.1157 52.128 22.0537C52.128 14.6716 54.1311 9.29504 58.8939 9.29504C62.6327 9.29504 65.081 12.1655 65.081 19.9561V21.9161H55.7331C55.7331 27.1108 57.1575 29.8443 59.9171 29.8443C61.8756 29.8443 63.4337 28.9331 64.3239 28.2957L65.1256 31.0279C63.7012 32.1679 61.8311 32.8966 59.6057 32.8966ZM55.7777 19H61.5197C61.5197 15.0815 60.8964 12.2111 58.8939 12.2111C56.757 12.2111 56.0006 14.899 55.7777 19ZM72.1136 21.1411V32.5779H68.6415V9.61375H72.1136V20.2299L77.4991 9.61375H81.0158L75.452 20.4124L81.8167 32.5779H78.0333L72.1136 21.1411ZM82.2618 21.0962C82.2618 13.8966 84.9775 9.29504 90.2299 9.29504C92.2324 9.29504 93.39 9.84189 94.3692 10.4793L93.8796 13.8516C92.9449 13.031 91.6097 12.2567 90.1853 12.2567C87.6925 12.2567 85.9122 15.1272 85.9122 20.9136C85.9122 26.6545 87.2474 29.9356 90.0516 29.9356C91.7427 29.9356 93.034 29.2519 93.835 28.5232L94.636 31.1655C93.4345 32.2128 92.0102 32.8966 89.9624 32.8966C85.1551 32.8966 82.2618 28.9332 82.2618 21.0962Z" fill="black"/>
<path d="M118.245 32.5778H104.625L104.313 38H102.577V30.7106H103.512C105.07 29.388 105.826 25.7433 106.271 21.0961C106.717 16.2665 106.85 9.06687 106.984 0H118.111V30.7106H120.294V38H118.557L118.245 32.5778ZM115.886 1.86799H108.987C108.853 10.1149 108.631 16.4026 108.275 21.0961C107.874 25.9707 107.162 29.2055 105.96 30.7106H115.886V1.86799V1.86799Z" fill="black"/>
<path d="M129.511 31.1654C132.492 31.1654 134.05 28.7056 134.05 28.7056L134.718 30.4353C134.718 30.4353 133.027 33.0327 129.467 33.0327C124.705 33.0327 122.522 28.613 122.522 21.0961C122.522 13.5778 125.282 9.15808 129.066 9.15808C132.938 9.15808 135.43 13.3047 134.718 21.4611H124.57C124.659 27.7481 126.261 31.1654 129.511 31.1654ZM124.614 19.7735H132.761C133.116 13.6691 131.336 10.9355 129.066 10.9355C126.707 10.9355 124.792 14.0334 124.614 19.7735Z" fill="black"/>
<path d="M148.431 21.506H140.775V32.5778H138.684V9.61365H140.775V19.7735H148.431V9.61365H150.523V32.5778H148.431V21.506Z" fill="black"/>
<path d="M155.469 9.61365H157.559V18.1344H159.208C163.48 18.1344 166.24 20.5036 166.24 25.2883C166.24 30.1629 163.302 32.5778 159.073 32.5778H155.469V9.61365ZM157.559 19.8198V30.8916H158.895C162.055 30.8916 164.192 29.2981 164.192 25.3333C164.192 21.4611 162.322 19.8198 159.117 19.8198H157.559V19.8198Z" fill="black"/>
<path d="M171.895 11.3911V32.5778H169.849V9.61365H179.329V11.3911H171.895Z" fill="black"/>
<path d="M192.997 16.5851C192.997 15.4001 193.085 14.3977 193.175 13.4409H193.041C192.73 14.4433 192.329 15.4001 191.839 16.4026L184.54 32.5778H182.76V9.61365H184.718V25.5607C184.718 26.7906 184.628 27.793 184.54 28.7955H184.673C184.984 27.7481 185.429 26.7457 185.875 25.7432L193.175 9.61365H195V32.5778H192.997V16.5851V16.5851Z" fill="black"/>
</svg>
